<svg class="marks" width="352" height="255" viewBox="0 0 352 255" version="1.1" xmlns="http://www.w3.org/2000/svg" xmlns:xlink="http://www.w3.org/1999/xlink"><g transform="translate(44,5)"><g class="mark-group role-frame root"><g transform="translate(0,0)"><path class="background" d="M0.5,0.5h250v200h-250Z" style="fill: none; stroke: #ddd;"></path><g><g class="mark-group role-axis"><g transform="translate(0.5,0.5)"><path class="background" d="M0,0h0v0h0Z" style="pointer-events: none; fill: none;"></path><g><g class="mark-rule role-axis-grid" style="pointer-events: none;"><line transform="translate(0,200)" x2="250" y2="0" style="fill: none; stroke: #ddd; stroke-width: 1; opacity: 1;"></line><line transform="translate(0,164)" x2="250" y2="0" style="fill: none; stroke: #ddd; stroke-width: 1; opacity: 1;"></line><line transform="translate(0,127)" x2="250" y2="0" style="fill: none; stroke: #ddd; stroke-width: 1; opacity: 1;"></line><line transform="translate(0,91)" x2="250" y2="0" style="fill: none; stroke: #ddd; stroke-width: 1; opacity: 1;"></line><line transform="translate(0,55)" x2="250" y2="0" style="fill: none; stroke: #ddd; stroke-width: 1; opacity: 1;"></line><line transform="translate(0,18)" x2="250" y2="0" style="fill: none; stroke: #ddd; stroke-width: 1; opacity: 1;"></line></g></g></g></g><g class="mark-rect role-mark marks"><path d="M1.1363636363636402,154.54545454545456h20.454545454545453v1.818181818181813h-20.454545454545453Z" style="fill: rgb(91, 163, 207);"></path><path d="M1.1363636363636402,156.36363636363637h20.454545454545453v43.636363636363626h-20.454545454545453Z" style="fill: rgb(41, 120, 184);"></path><path d="M23.863636363636367,189.0909090909091h20.454545454545453v10.909090909090907h-20.454545454545453Z" style="fill: rgb(91, 163, 207);"></path><path d="M46.59090909090909,67.27272727272725h20.454545454545453v129.09090909090912h-20.454545454545453Z" style="fill: rgb(112, 176, 214);"></path><path d="M46.59090909090909,196.36363636363637h20.454545454545453v1.818181818181813h-20.454545454545453Z" style="fill: rgb(73, 149, 200);"></path><path d="M46.59090909090909,198.1818181818182h20.454545454545453v1.818181818181813h-20.454545454545453Z" style="fill: rgb(56, 135, 192);"></path><path d="M69.31818181818183,5.454545454545439h20.454545454545453v127.27272727272731h-20.454545454545453Z" style="fill: rgb(134, 188, 220);"></path><path d="M69.31818181818183,132.72727272727275h20.454545454545453v7.272727272727252h-20.454545454545453Z" style="fill: rgb(91, 163, 207);"></path><path d="M69.31818181818183,140h20.454545454545453v10.909090909090907h-20.454545454545453Z" style="fill: rgb(73, 149, 200);"></path><path d="M69.31818181818183,150.9090909090909h20.454545454545453v49.09090909090909h-20.454545454545453Z" style="fill: rgb(56, 135, 192);"></path><path d="M92.04545454545455,192.72727272727272h20.454545454545453v1.818181818181813h-20.454545454545453Z" style="fill: rgb(112, 176, 214);"></path><path d="M92.04545454545455,194.54545454545453h20.454545454545453v3.6363636363636545h-20.454545454545453Z" style="fill: rgb(91, 163, 207);"></path><path d="M92.04545454545455,198.1818181818182h20.454545454545453v0h-20.454545454545453Z" style="fill: rgb(73, 149, 200);"></path><path d="M92.04545454545455,198.1818181818182h20.454545454545453v1.818181818181813h-20.454545454545453Z" style="fill: rgb(41, 120, 184);"></path><path d="M114.77272727272727,196.36363636363637h20.454545454545453v1.818181818181813h-20.454545454545453Z" style="fill: rgb(112, 176, 214);"></path><path d="M114.77272727272727,198.1818181818182h20.454545454545453v0h-20.454545454545453Z" style="fill: rgb(91, 163, 207);"></path><path d="M114.77272727272727,198.1818181818182h20.454545454545453v1.818181818181813h-20.454545454545453Z" style="fill: rgb(56, 135, 192);"></path><path d="M137.5,174.54545454545456h20.454545454545453v5.454545454545439h-20.454545454545453Z" style="fill: rgb(175, 209, 231);"></path><path d="M137.5,180h20.454545454545453v5.4545454545454675h-20.454545454545453Z" style="fill: rgb(134, 188, 220);"></path><path d="M137.5,185.45454545454547h20.454545454545453v14.545454545454533h-20.454545454545453Z" style="fill: rgb(73, 149, 200);"></path><path d="M160.22727272727275,154.54545454545456h20.454545454545453v1.818181818181813h-20.454545454545453Z" style="fill: rgb(134, 188, 220);"></path><path d="M160.22727272727275,156.36363636363637h20.454545454545453v14.545454545454533h-20.454545454545453Z" style="fill: rgb(112, 176, 214);"></path><path d="M160.22727272727275,170.9090909090909h20.454545454545453v18.181818181818187h-20.454545454545453Z" style="fill: rgb(91, 163, 207);"></path><path d="M160.22727272727275,189.0909090909091h20.454545454545453v5.454545454545439h-20.454545454545453Z" style="fill: rgb(56, 135, 192);"></path><path d="M160.22727272727275,194.54545454545453h20.454545454545453v5.4545454545454675h-20.454545454545453Z" style="fill: rgb(27, 105, 173);"></path><path d="M182.95454545454544,69.0909090909091h20.454545454545453v0h-20.454545454545453Z" style="fill: rgb(175, 209, 231);"></path><path d="M182.95454545454544,69.0909090909091h20.454545454545453v5.454545454545439h-20.454545454545453Z" style="fill: rgb(134, 188, 220);"></path><path d="M182.95454545454544,74.54545454545453h20.454545454545453v10.90909090909092h-20.454545454545453Z" style="fill: rgb(112, 176, 214);"></path><path d="M182.95454545454544,85.45454545454545h20.454545454545453v67.27272727272727h-20.454545454545453Z" style="fill: rgb(91, 163, 207);"></path><path d="M182.95454545454544,152.72727272727272h20.454545454545453v38.18181818181819h-20.454545454545453Z" style="fill: rgb(56, 135, 192);"></path><path d="M182.95454545454544,190.9090909090909h20.454545454545453v1.818181818181813h-20.454545454545453Z" style="fill: rgb(27, 105, 173);"></path><path d="M182.95454545454544,192.72727272727272h20.454545454545453v7.2727272727272805h-20.454545454545453Z" style="fill: rgb(17, 89, 161);"></path><path d="M205.6818181818182,90.90909090909092h20.454545454545453v41.81818181818183h-20.454545454545453Z" style="fill: rgb(175, 209, 231);"></path><path d="M205.6818181818182,132.72727272727275h20.454545454545453v3.636363636363626h-20.454545454545453Z" style="fill: rgb(156, 200, 226);"></path><path d="M205.6818181818182,136.36363636363637h20.454545454545453v1.818181818181813h-20.454545454545453Z" style="fill: rgb(134, 188, 220);"></path><path d="M205.6818181818182,138.1818181818182h20.454545454545453v9.090909090909093h-20.454545454545453Z" style="fill: rgb(112, 176, 214);"></path><path d="M205.6818181818182,147.27272727272728h20.454545454545453v3.636363636363626h-20.454545454545453Z" style="fill: rgb(91, 163, 207);"></path><path d="M205.6818181818182,150.9090909090909h20.454545454545453v38.18181818181819h-20.454545454545453Z" style="fill: rgb(73, 149, 200);"></path><path d="M205.6818181818182,189.0909090909091h20.454545454545453v10.909090909090907h-20.454545454545453Z" style="fill: rgb(41, 120, 184);"></path><path d="M228.40909090909088,192.72727272727272h20.454545454545453v7.2727272727272805h-20.454545454545453Z" style="fill: rgb(193, 218, 237);"></path><path d="M228.40909090909088,200h20.454545454545453v0h-20.454545454545453Z" style="fill: rgb(175, 209, 231);"></path></g><g class="mark-group role-legend"><g transform="translate(268,0)"><path class="background" d="M0,0h35v157h-35Z" style="pointer-events: none; fill: none;"></path><g><g class="mark-group role-legend-entry"><g transform="translate(0,16)"><path class="background" d="M0,0h0v0h0Z" style="pointer-events: none; fill: none;"></path><g><g class="mark-group role-scope"><g transform="translate(0,0)"><path class="background" d="M0,0h34.8916015625v11h-34.8916015625Z" style="pointer-events: none; fill: none; opacity: 1;"></path><g><g class="mark-symbol role-legend-symbol" style="pointer-events: none;"><path transform="translate(6,6)" d="M-5,-5h10v10h-10Z" style="fill: rgb(193, 218, 237); stroke-width: 1.5; opacity: 1;"></path></g><g class="mark-text role-legend-label" style="pointer-events: none;"><text text-anchor="start" transform="translate(16,9)" style="font-family: sans-serif; font-size: 10px; fill: #000; opacity: 1;">Feb</text></g></g></g><g transform="translate(0,13)"><path class="background" d="M0,0h34.8916015625v11h-34.8916015625Z" style="pointer-events: none; fill: none; opacity: 1;"></path><g><g class="mark-symbol role-legend-symbol" style="pointer-events: none;"><path transform="translate(6,6)" d="M-5,-5h10v10h-10Z" style="fill: rgb(175, 209, 231); stroke-width: 1.5; opacity: 1;"></path></g><g class="mark-text role-legend-label" style="pointer-events: none;"><text text-anchor="start" transform="translate(16,9)" style="font-family: sans-serif; font-size: 10px; fill: #000; opacity: 1;">Mar</text></g></g></g><g transform="translate(0,26)"><path class="background" d="M0,0h34.8916015625v11h-34.8916015625Z" style="pointer-events: none; fill: none; opacity: 1;"></path><g><g class="mark-symbol role-legend-symbol" style="pointer-events: none;"><path transform="translate(6,6)" d="M-5,-5h10v10h-10Z" style="fill: rgb(156, 200, 226); stroke-width: 1.5; opacity: 1;"></path></g><g class="mark-text role-legend-label" style="pointer-events: none;"><text text-anchor="start" transform="translate(16,9)" style="font-family: sans-serif; font-size: 10px; fill: #000; opacity: 1;">Apr</text></g></g></g><g transform="translate(0,39)"><path class="background" d="M0,0h34.8916015625v11h-34.8916015625Z" style="pointer-events: none; fill: none; opacity: 1;"></path><g><g class="mark-symbol role-legend-symbol" style="pointer-events: none;"><path transform="translate(6,6)" d="M-5,-5h10v10h-10Z" style="fill: rgb(134, 188, 220); stroke-width: 1.5; opacity: 1;"></path></g><g class="mark-text role-legend-label" style="pointer-events: none;"><text text-anchor="start" transform="translate(16,9)" style="font-family: sans-serif; font-size: 10px; fill: #000; opacity: 1;">May</text></g></g></g><g transform="translate(0,52)"><path class="background" d="M0,0h34.8916015625v11h-34.8916015625Z" style="pointer-events: none; fill: none; opacity: 1;"></path><g><g class="mark-symbol role-legend-symbol" style="pointer-events: none;"><path transform="translate(6,6)" d="M-5,-5h10v10h-10Z" style="fill: rgb(112, 176, 214); stroke-width: 1.5; opacity: 1;"></path></g><g class="mark-text role-legend-label" style="pointer-events: none;"><text text-anchor="start" transform="translate(16,9)" style="font-family: sans-serif; font-size: 10px; fill: #000; opacity: 1;">Jun</text></g></g></g><g transform="translate(0,65)"><path class="background" d="M0,0h34.8916015625v11h-34.8916015625Z" style="pointer-events: none; fill: none; opacity: 1;"></path><g><g class="mark-symbol role-legend-symbol" style="pointer-events: none;"><path transform="translate(6,6)" d="M-5,-5h10v10h-10Z" style="fill: rgb(91, 163, 207); stroke-width: 1.5; opacity: 1;"></path></g><g class="mark-text role-legend-label" style="pointer-events: none;"><text text-anchor="start" transform="translate(16,9)" style="font-family: sans-serif; font-size: 10px; fill: #000; opacity: 1;">Jul</text></g></g></g><g transform="translate(0,78)"><path class="background" d="M0,0h34.8916015625v11h-34.8916015625Z" style="pointer-events: none; fill: none; opacity: 1;"></path><g><g class="mark-symbol role-legend-symbol" style="pointer-events: none;"><path transform="translate(6,6)" d="M-5,-5h10v10h-10Z" style="fill: rgb(73, 149, 200); stroke-width: 1.5; opacity: 1;"></path></g><g class="mark-text role-legend-label" style="pointer-events: none;"><text text-anchor="start" transform="translate(16,9)" style="font-family: sans-serif; font-size: 10px; fill: #000; opacity: 1;">Aug</text></g></g></g><g transform="translate(0,91)"><path class="background" d="M0,0h34.8916015625v11h-34.8916015625Z" style="pointer-events: none; fill: none; opacity: 1;"></path><g><g class="mark-symbol role-legend-symbol" style="pointer-events: none;"><path transform="translate(6,6)" d="M-5,-5h10v10h-10Z" style="fill: rgb(56, 135, 192); stroke-width: 1.5; opacity: 1;"></path></g><g class="mark-text role-legend-label" style="pointer-events: none;"><text text-anchor="start" transform="translate(16,9)" style="font-family: sans-serif; font-size: 10px; fill: #000; opacity: 1;">Sep</text></g></g></g><g transform="translate(0,104)"><path class="background" d="M0,0h34.8916015625v11h-34.8916015625Z" style="pointer-events: none; fill: none; opacity: 1;"></path><g><g class="mark-symbol role-legend-symbol" style="pointer-events: none;"><path transform="translate(6,6)" d="M-5,-5h10v10h-10Z" style="fill: rgb(41, 120, 184); stroke-width: 1.5; opacity: 1;"></path></g><g class="mark-text role-legend-label" style="pointer-events: none;"><text text-anchor="start" transform="translate(16,9)" style="font-family: sans-serif; font-size: 10px; fill: #000; opacity: 1;">Oct</text></g></g></g><g transform="translate(0,117)"><path class="background" d="M0,0h34.8916015625v11h-34.8916015625Z" style="pointer-events: none; fill: none; opacity: 1;"></path><g><g class="mark-symbol role-legend-symbol" style="pointer-events: none;"><path transform="translate(6,6)" d="M-5,-5h10v10h-10Z" style="fill: rgb(27, 105, 173); stroke-width: 1.5; opacity: 1;"></path></g><g class="mark-text role-legend-label" style="pointer-events: none;"><text text-anchor="start" transform="translate(16,9)" style="font-family: sans-serif; font-size: 10px; fill: #000; opacity: 1;">Nov</text></g></g></g><g transform="translate(0,130)"><path class="background" d="M0,0h34.8916015625v11h-34.8916015625Z" style="pointer-events: none; fill: none; opacity: 1;"></path><g><g class="mark-symbol role-legend-symbol" style="pointer-events: none;"><path transform="translate(6,6)" d="M-5,-5h10v10h-10Z" style="fill: rgb(17, 89, 161); stroke-width: 1.5; opacity: 1;"></path></g><g class="mark-text role-legend-label" style="pointer-events: none;"><text text-anchor="start" transform="translate(16,9)" style="font-family: sans-serif; font-size: 10px; fill: #000; opacity: 1;">Dec</text></g></g></g></g></g></g></g><g class="mark-text role-legend-title" style="pointer-events: none;"><text text-anchor="start" transform="translate(0,9)" style="font-family: sans-serif; font-size: 11px; font-weight: bold; fill: #000; opacity: 1;">Hónap</text></g></g></g></g><g class="mark-group role-axis"><g transform="translate(0.5,200.5)"><path class="background" d="M0,0h0v0h0Z" style="pointer-events: none; fill: none;"></path><g><g class="mark-rule role-axis-tick" style="pointer-events: none;"><line transform="translate(10,0)" x2="0" y2="5" style="fill: none; stroke: #888; stroke-width: 1; opacity: 1;"></line><line transform="translate(33,0)" x2="0" y2="5" style="fill: none; stroke: #888; stroke-width: 1; opacity: 1;"></line><line transform="translate(56,0)" x2="0" y2="5" style="fill: none; stroke: #888; stroke-width: 1; opacity: 1;"></line><line transform="translate(79,0)" x2="0" y2="5" style="fill: none; stroke: #888; stroke-width: 1; opacity: 1;"></line><line transform="translate(101,0)" x2="0" y2="5" style="fill: none; stroke: #888; stroke-width: 1; opacity: 1;"></line><line transform="translate(124,0)" x2="0" y2="5" style="fill: none; stroke: #888; stroke-width: 1; opacity: 1;"></line><line transform="translate(147,0)" x2="0" y2="5" style="fill: none; stroke: #888; stroke-width: 1; opacity: 1;"></line><line transform="translate(169,0)" x2="0" y2="5" style="fill: none; stroke: #888; stroke-width: 1; opacity: 1;"></line><line transform="translate(192,0)" x2="0" y2="5" style="fill: none; stroke: #888; stroke-width: 1; opacity: 1;"></line><line transform="translate(215,0)" x2="0" y2="5" style="fill: none; stroke: #888; stroke-width: 1; opacity: 1;"></line><line transform="translate(238,0)" x2="0" y2="5" style="fill: none; stroke: #888; stroke-width: 1; opacity: 1;"></line></g><g class="mark-text role-axis-label" style="pointer-events: none;"><text text-anchor="end" transform="translate(10.363636363636367,7) rotate(270) translate(0,3)" style="font-family: sans-serif; font-size: 10px; fill: #000; opacity: 1;">2008</text><text text-anchor="end" transform="translate(33.09090909090909,7) rotate(270) translate(0,3)" style="font-family: sans-serif; font-size: 10px; fill: #000; opacity: 1;">2010</text><text text-anchor="end" transform="translate(55.81818181818182,7) rotate(270) translate(0,3)" style="font-family: sans-serif; font-size: 10px; fill: #000; opacity: 1;">2011</text><text text-anchor="end" transform="translate(78.54545454545456,7) rotate(270) translate(0,3)" style="font-family: sans-serif; font-size: 10px; fill: #000; opacity: 1;">2012</text><text text-anchor="end" transform="translate(101.27272727272728,7) rotate(270) translate(0,3)" style="font-family: sans-serif; font-size: 10px; fill: #000; opacity: 1;">2013</text><text text-anchor="end" transform="translate(124,7) rotate(270) translate(0,3)" style="font-family: sans-serif; font-size: 10px; fill: #000; opacity: 1;">2014</text><text text-anchor="end" transform="translate(146.72727272727272,7) rotate(270) translate(0,3)" style="font-family: sans-serif; font-size: 10px; fill: #000; opacity: 1;">2015</text><text text-anchor="end" transform="translate(169.45454545454547,7) rotate(270) translate(0,3)" style="font-family: sans-serif; font-size: 10px; fill: #000; opacity: 1;">2016</text><text text-anchor="end" transform="translate(192.18181818181816,7) rotate(270) translate(0,3)" style="font-family: sans-serif; font-size: 10px; fill: #000; opacity: 1;">2017</text><text text-anchor="end" transform="translate(214.9090909090909,7) rotate(270) translate(0,3)" style="font-family: sans-serif; font-size: 10px; fill: #000; opacity: 1;">2018</text><text text-anchor="end" transform="translate(237.6363636363636,7) rotate(270) translate(0,3)" style="font-family: sans-serif; font-size: 10px; fill: #000; opacity: 1;">2019</text></g><g class="mark-rule role-axis-domain" style="pointer-events: none;"><line transform="translate(0,0)" x2="250" y2="0" style="fill: none; stroke: #888; stroke-width: 1; opacity: 1;"></line></g><g class="mark-text role-axis-title" style="pointer-events: none;"><text text-anchor="middle" transform="translate(125,42.24609375)" style="font-family: sans-serif; font-size: 11px; font-weight: bold; fill: #000; opacity: 1;">Év</text></g></g></g></g><g class="mark-group role-axis"><g transform="translate(0.5,0.5)"><path class="background" d="M0,0h0v0h0Z" style="pointer-events: none; fill: none;"></path><g><g class="mark-rule role-axis-tick" style="pointer-events: none;"><line transform="translate(0,200)" x2="-5" y2="0" style="fill: none; stroke: #888; stroke-width: 1; opacity: 1;"></line><line transform="translate(0,164)" x2="-5" y2="0" style="fill: none; stroke: #888; stroke-width: 1; opacity: 1;"></line><line transform="translate(0,127)" x2="-5" y2="0" style="fill: none; stroke: #888; stroke-width: 1; opacity: 1;"></line><line transform="translate(0,91)" x2="-5" y2="0" style="fill: none; stroke: #888; stroke-width: 1; opacity: 1;"></line><line transform="translate(0,55)" x2="-5" y2="0" style="fill: none; stroke: #888; stroke-width: 1; opacity: 1;"></line><line transform="translate(0,18)" x2="-5" y2="0" style="fill: none; stroke: #888; stroke-width: 1; opacity: 1;"></line></g><g class="mark-text role-axis-label" style="pointer-events: none;"><text text-anchor="end" transform="translate(-7,203)" style="font-family: sans-serif; font-size: 10px; fill: #000; opacity: 1;">0</text><text text-anchor="end" transform="translate(-7,166.63636363636363)" style="font-family: sans-serif; font-size: 10px; fill: #000; opacity: 1;">20</text><text text-anchor="end" transform="translate(-7,130.27272727272725)" style="font-family: sans-serif; font-size: 10px; fill: #000; opacity: 1;">40</text><text text-anchor="end" transform="translate(-7,93.90909090909092)" style="font-family: sans-serif; font-size: 10px; fill: #000; opacity: 1;">60</text><text text-anchor="end" transform="translate(-7,57.54545454545453)" style="font-family: sans-serif; font-size: 10px; fill: #000; opacity: 1;">80</text><text text-anchor="end" transform="translate(-7,21.181818181818187)" style="font-family: sans-serif; font-size: 10px; fill: #000; opacity: 1;">100</text></g><g class="mark-rule role-axis-domain" style="pointer-events: none;"><line transform="translate(0,200)" x2="0" y2="-200" style="fill: none; stroke: #888; stroke-width: 1; opacity: 1;"></line></g><g class="mark-text role-axis-title" style="pointer-events: none;"><text text-anchor="middle" transform="translate(-27.6845703125,100) rotate(-90) translate(0,-2)" style="font-family: sans-serif; font-size: 11px; font-weight: bold; fill: #000; opacity: 1;">Áldozatok száma</text></g></g></g></g></g></g></g></g></svg>