<svg class="marks" width="804" height="345" viewBox="0 0 804 345" version="1.1" xmlns="http://www.w3.org/2000/svg" xmlns:xlink="http://www.w3.org/1999/xlink"><g transform="translate(39,20)"><g class="mark-group role-frame root"><g transform="translate(0,0)"><path class="background" d="M0.5,0.5h760v200h-760Z" style="fill: none; stroke: #ddd;"></path><g><g class="mark-group role-axis"><g transform="translate(0.5,0.5)"><path class="background" d="M0,0h0v0h0Z" style="pointer-events: none; fill: none;"></path><g><g class="mark-rule role-axis-grid" style="pointer-events: none;"><line transform="translate(0,200)" x2="760" y2="0" style="fill: none; stroke: #ddd; stroke-width: 1; opacity: 1;"></line><line transform="translate(0,171)" x2="760" y2="0" style="fill: none; stroke: #ddd; stroke-width: 1; opacity: 1;"></line><line transform="translate(0,143)" x2="760" y2="0" style="fill: none; stroke: #ddd; stroke-width: 1; opacity: 1;"></line><line transform="translate(0,114)" x2="760" y2="0" style="fill: none; stroke: #ddd; stroke-width: 1; opacity: 1;"></line><line transform="translate(0,86)" x2="760" y2="0" style="fill: none; stroke: #ddd; stroke-width: 1; opacity: 1;"></line><line transform="translate(0,57)" x2="760" y2="0" style="fill: none; stroke: #ddd; stroke-width: 1; opacity: 1;"></line><line transform="translate(0,29)" x2="760" y2="0" style="fill: none; stroke: #ddd; stroke-width: 1; opacity: 1;"></line><line transform="translate(0,0)" x2="760" y2="0" style="fill: none; stroke: #ddd; stroke-width: 1; opacity: 1;"></line></g></g></g></g><g class="mark-rect role-mark marks"><path d="M590.4179104477612,128.57142857142856h10.208955223880597v57.14285714285717h-10.208955223880597Z" style="fill: #80cdc1;"></path><path d="M442.955223880597,185.71428571428572h10.208955223880597v14.285714285714278h-10.208955223880597Z" style="fill: #8c510a;"></path><path d="M454.29850746268653,185.71428571428572h10.208955223880597v14.285714285714278h-10.208955223880597Z" style="fill: #80cdc1;"></path><path d="M318.1791044776119,142.85714285714286h10.208955223880597v28.571428571428584h-10.208955223880597Z" style="fill: #80cdc1;"></path><path d="M658.4776119402984,185.71428571428572h10.208955223880597v14.285714285714278h-10.208955223880597Z" style="fill: #dfc27d;"></path><path d="M318.1791044776119,171.42857142857144h10.208955223880597v28.571428571428555h-10.208955223880597Z" style="fill: #dfc27d;"></path><path d="M669.8208955223881,14.285714285714278h10.208955223880597v114.28571428571428h-10.208955223880597Z" style="fill: #80cdc1;"></path><path d="M340.865671641791,171.42857142857144h10.208955223880597v14.285714285714278h-10.208955223880597Z" style="fill: #dfc27d;"></path><path d="M125.34328358208948,142.85714285714286h10.208955223880597v57.14285714285714h-10.208955223880597Z" style="fill: #8c510a;"></path><path d="M295.49253731343276,185.71428571428572h10.208955223880597v14.285714285714278h-10.208955223880597Z" style="fill: #8c510a;"></path><path d="M11.910447761193948,185.71428571428572h10.208955223880597v14.285714285714278h-10.208955223880597Z" style="fill: #8c510a;"></path><path d="M420.26865671641787,185.71428571428572h10.208955223880597v14.285714285714278h-10.208955223880597Z" style="fill: #dfc27d;"></path><path d="M238.77611940298502,171.42857142857144h10.208955223880597v28.571428571428555h-10.208955223880597Z" style="fill: #8c510a;"></path><path d="M238.77611940298502,100h10.208955223880597v71.42857142857144h-10.208955223880597Z" style="fill: #dfc27d;"></path><path d="M624.4477611940299,171.42857142857144h10.208955223880597v28.571428571428555h-10.208955223880597Z" style="fill: #8c510a;"></path><path d="M669.8208955223881,128.57142857142856h10.208955223880597v42.85714285714289h-10.208955223880597Z" style="fill: #dfc27d;"></path><path d="M11.910447761193948,157.14285714285714h10.208955223880597v28.571428571428584h-10.208955223880597Z" style="fill: #dfc27d;"></path><path d="M386.2388059701492,185.71428571428572h10.208955223880597v14.285714285714278h-10.208955223880597Z" style="fill: #dfc27d;"></path><path d="M363.5522388059701,171.42857142857144h10.208955223880597v28.571428571428555h-10.208955223880597Z" style="fill: #dfc27d;"></path><path d="M386.2388059701492,171.42857142857144h10.208955223880597v14.285714285714278h-10.208955223880597Z" style="fill: #80cdc1;"></path><path d="M68.62686567164171,185.71428571428572h10.208955223880597v14.285714285714278h-10.208955223880597Z" style="fill: #543005;"></path><path d="M0.5671641791043953,157.14285714285714h10.208955223880597v42.85714285714286h-10.208955223880597Z" style="fill: #8c510a;"></path><path d="M352.20895522388054,185.71428571428572h10.208955223880597v14.285714285714278h-10.208955223880597Z" style="fill: #8c510a;"></path><path d="M567.731343283582,185.71428571428572h10.208955223880597v14.285714285714278h-10.208955223880597Z" style="fill: #dfc27d;"></path><path d="M601.7611940298507,171.42857142857144h10.208955223880597v14.285714285714278h-10.208955223880597Z" style="fill: #dfc27d;"></path><path d="M522.3582089552237,185.71428571428572h10.208955223880597v14.285714285714278h-10.208955223880597Z" style="fill: #dfc27d;"></path><path d="M238.77611940298502,-14.285714285714278h10.208955223880597v114.28571428571428h-10.208955223880597Z" style="fill: #80cdc1;"></path><path d="M374.89552238805965,185.71428571428572h10.208955223880597v14.285714285714278h-10.208955223880597Z" style="fill: #80cdc1;"></path><path d="M34.59701492537305,185.71428571428572h10.208955223880597v14.285714285714278h-10.208955223880597Z" style="fill: #80cdc1;"></path><path d="M692.5074626865671,171.42857142857144h10.208955223880597v14.285714285714278h-10.208955223880597Z" style="fill: #dfc27d;"></path><path d="M533.7014925373135,185.71428571428572h10.208955223880597v14.285714285714278h-10.208955223880597Z" style="fill: #dfc27d;"></path><path d="M431.6119402985074,185.71428571428572h10.208955223880597v14.285714285714278h-10.208955223880597Z" style="fill: #8c510a;"></path><path d="M0.5671641791043953,128.57142857142856h10.208955223880597v14.285714285714306h-10.208955223880597Z" style="fill: #80cdc1;"></path><path d="M613.1044776119402,185.71428571428572h10.208955223880597v14.285714285714278h-10.208955223880597Z" style="fill: #8c510a;"></path><path d="M579.0746268656717,171.42857142857144h10.208955223880597v28.571428571428555h-10.208955223880597Z" style="fill: #dfc27d;"></path><path d="M148.02985074626858,185.71428571428572h10.208955223880597v14.285714285714278h-10.208955223880597Z" style="fill: #8c510a;"></path><path d="M204.74626865671635,185.71428571428572h10.208955223880597v14.285714285714278h-10.208955223880597Z" style="fill: #dfc27d;"></path><path d="M556.3880597014925,171.42857142857144h10.208955223880597v28.571428571428555h-10.208955223880597Z" style="fill: #8c510a;"></path><path d="M272.80597014925365,171.42857142857144h10.208955223880597v28.571428571428555h-10.208955223880597Z" style="fill: #dfc27d;"></path><path d="M182.05970149253724,171.42857142857144h10.208955223880597v14.285714285714278h-10.208955223880597Z" style="fill: #dfc27d;"></path><path d="M476.98507462686564,185.71428571428572h10.208955223880597v14.285714285714278h-10.208955223880597Z" style="fill: #dfc27d;"></path><path d="M465.6417910447761,185.71428571428572h10.208955223880597v14.285714285714278h-10.208955223880597Z" style="fill: #8c510a;"></path><path d="M284.1492537313432,185.71428571428572h10.208955223880597v14.285714285714278h-10.208955223880597Z" style="fill: #dfc27d;"></path><path d="M250.11940298507457,128.57142857142856h10.208955223880597v71.42857142857144h-10.208955223880597Z" style="fill: #dfc27d;"></path><path d="M250.11940298507457,85.71428571428572h10.208955223880597v42.85714285714283h-10.208955223880597Z" style="fill: #80cdc1;"></path><path d="M499.67164179104475,128.57142857142856h10.208955223880597v42.85714285714289h-10.208955223880597Z" style="fill: #80cdc1;"></path><path d="M715.1940298507463,185.71428571428572h10.208955223880597v14.285714285714278h-10.208955223880597Z" style="fill: #dfc27d;"></path><path d="M272.80597014925365,157.14285714285714h10.208955223880597v14.285714285714306h-10.208955223880597Z" style="fill: #80cdc1;"></path><path d="M545.044776119403,185.71428571428572h10.208955223880597v14.285714285714278h-10.208955223880597Z" style="fill: #80cdc1;"></path><path d="M79.97014925373126,171.42857142857144h10.208955223880597v28.571428571428555h-10.208955223880597Z" style="fill: #dfc27d;"></path><path d="M79.97014925373126,157.14285714285714h10.208955223880597v14.285714285714306h-10.208955223880597Z" style="fill: #80cdc1;"></path><path d="M306.8358208955223,185.71428571428572h10.208955223880597v14.285714285714278h-10.208955223880597Z" style="fill: #dfc27d;"></path><path d="M726.5373134328358,171.42857142857144h10.208955223880597v28.571428571428555h-10.208955223880597Z" style="fill: #dfc27d;"></path><path d="M408.9253731343283,185.71428571428572h10.208955223880597v14.285714285714278h-10.208955223880597Z" style="fill: #dfc27d;"></path><path d="M624.4477611940299,157.14285714285714h10.208955223880597v14.285714285714306h-10.208955223880597Z" style="fill: #dfc27d;"></path><path d="M692.5074626865671,185.71428571428572h10.208955223880597v14.285714285714278h-10.208955223880597Z" style="fill: #8c510a;"></path><path d="M624.4477611940299,100h10.208955223880597v57.14285714285714h-10.208955223880597Z" style="fill: #80cdc1;"></path><path d="M102.65671641791037,185.71428571428572h10.208955223880597v14.285714285714278h-10.208955223880597Z" style="fill: #80cdc1;"></path><path d="M227.43283582089546,185.71428571428572h10.208955223880597v14.285714285714278h-10.208955223880597Z" style="fill: #8c510a;"></path><path d="M159.37313432835813,185.71428571428572h10.208955223880597v14.285714285714278h-10.208955223880597Z" style="fill: #80cdc1;"></path><path d="M340.865671641791,185.71428571428572h10.208955223880597v14.285714285714278h-10.208955223880597Z" style="fill: #8c510a;"></path><path d="M499.67164179104475,171.42857142857144h10.208955223880597v28.571428571428555h-10.208955223880597Z" style="fill: #dfc27d;"></path><path d="M91.31343283582082,185.71428571428572h10.208955223880597v14.285714285714278h-10.208955223880597Z" style="fill: #8c510a;"></path><path d="M0.5671641791043953,142.85714285714286h10.208955223880597v14.285714285714278h-10.208955223880597Z" style="fill: #dfc27d;"></path><path d="M113.99999999999993,185.71428571428572h10.208955223880597v14.285714285714278h-10.208955223880597Z" style="fill: #80cdc1;"></path><path d="M590.4179104477612,185.71428571428572h10.208955223880597v14.285714285714278h-10.208955223880597Z" style="fill: #8c510a;"></path><path d="M170.7164179104477,171.42857142857144h10.208955223880597v28.571428571428555h-10.208955223880597Z" style="fill: #dfc27d;"></path><path d="M397.58208955223876,185.71428571428572h10.208955223880597v14.285714285714278h-10.208955223880597Z" style="fill: #8c510a;"></path><path d="M601.7611940298507,185.71428571428572h10.208955223880597v14.285714285714278h-10.208955223880597Z" style="fill: #8c510a;"></path><path d="M57.28358208955216,185.71428571428572h10.208955223880597v14.285714285714278h-10.208955223880597Z" style="fill: #dfc27d;"></path><path d="M669.8208955223881,171.42857142857144h10.208955223880597v28.571428571428555h-10.208955223880597Z" style="fill: #8c510a;"></path><path d="M45.94029850746261,171.42857142857144h10.208955223880597v14.285714285714278h-10.208955223880597Z" style="fill: #80cdc1;"></path><path d="M45.94029850746261,185.71428571428572h10.208955223880597v14.285714285714278h-10.208955223880597Z" style="fill: #dfc27d;"></path><path d="M136.68656716417902,185.71428571428572h10.208955223880597v14.285714285714278h-10.208955223880597Z" style="fill: #8c510a;"></path><path d="M182.05970149253724,185.71428571428572h10.208955223880597v14.285714285714278h-10.208955223880597Z" style="fill: #8c510a;"></path><path d="M125.34328358208948,128.57142857142856h10.208955223880597v14.285714285714306h-10.208955223880597Z" style="fill: #dfc27d;"></path><path d="M511.0149253731343,185.71428571428572h10.208955223880597v14.285714285714278h-10.208955223880597Z" style="fill: #80cdc1;"></path><path d="M737.8805970149253,185.71428571428572h10.208955223880597v14.285714285714278h-10.208955223880597Z" style="fill: #80cdc1;"></path><path d="M647.1343283582089,185.71428571428572h10.208955223880597v14.285714285714278h-10.208955223880597Z" style="fill: #8c510a;"></path><path d="M749.2238805970148,185.71428571428572h10.208955223880597v14.285714285714278h-10.208955223880597Z" style="fill: #80cdc1;"></path><path d="M681.1641791044776,142.85714285714286h10.208955223880597v57.14285714285714h-10.208955223880597Z" style="fill: #80cdc1;"></path><path d="M488.3283582089552,185.71428571428572h10.208955223880597v14.285714285714278h-10.208955223880597Z" style="fill: #543005;"></path><path d="M23.2537313432835,185.71428571428572h10.208955223880597v14.285714285714278h-10.208955223880597Z" style="fill: #dfc27d;"></path><path d="M193.4029850746268,185.71428571428572h10.208955223880597v14.285714285714278h-10.208955223880597Z" style="fill: #dfc27d;"></path><path d="M703.8507462686566,171.42857142857144h10.208955223880597v28.571428571428555h-10.208955223880597Z" style="fill: #80cdc1;"></path><path d="M261.4626865671641,185.71428571428572h10.208955223880597v14.285714285714278h-10.208955223880597Z" style="fill: #dfc27d;"></path><path d="M329.5223880597014,171.42857142857144h10.208955223880597v28.571428571428555h-10.208955223880597Z" style="fill: #80cdc1;"></path><path d="M635.7910447761194,171.42857142857144h10.208955223880597v28.571428571428555h-10.208955223880597Z" style="fill: #80cdc1;"></path><path d="M216.0895522388059,185.71428571428572h10.208955223880597v14.285714285714278h-10.208955223880597Z" style="fill: #80cdc1;"></path><path d="M182.05970149253724,157.14285714285714h10.208955223880597v14.285714285714306h-10.208955223880597Z" style="fill: #80cdc1;"></path><path d="M363.5522388059701,157.14285714285714h10.208955223880597v14.285714285714306h-10.208955223880597Z" style="fill: #80cdc1;"></path><path d="M601.7611940298507,157.14285714285714h10.208955223880597v14.285714285714306h-10.208955223880597Z" style="fill: #80cdc1;"></path></g><g class="mark-group role-axis"><g transform="translate(0.5,200.5)"><path class="background" d="M0,0h0v0h0Z" style="pointer-events: none; fill: none;"></path><g><g class="mark-rule role-axis-tick" style="pointer-events: none;"><line transform="translate(5,0)" x2="0" y2="5" style="fill: none; stroke: #888; stroke-width: 1; opacity: 1;"></line><line transform="translate(16,0)" x2="0" y2="5" style="fill: none; stroke: #888; stroke-width: 1; opacity: 1;"></line><line transform="translate(27,0)" x2="0" y2="5" style="fill: none; stroke: #888; stroke-width: 1; opacity: 1;"></line><line transform="translate(39,0)" x2="0" y2="5" style="fill: none; stroke: #888; stroke-width: 1; opacity: 1;"></line><line transform="translate(50,0)" x2="0" y2="5" style="fill: none; stroke: #888; stroke-width: 1; opacity: 1;"></line><line transform="translate(61,0)" x2="0" y2="5" style="fill: none; stroke: #888; stroke-width: 1; opacity: 1;"></line><line transform="translate(73,0)" x2="0" y2="5" style="fill: none; stroke: #888; stroke-width: 1; opacity: 1;"></line><line transform="translate(84,0)" x2="0" y2="5" style="fill: none; stroke: #888; stroke-width: 1; opacity: 1;"></line><line transform="translate(95,0)" x2="0" y2="5" style="fill: none; stroke: #888; stroke-width: 1; opacity: 1;"></line><line transform="translate(107,0)" x2="0" y2="5" style="fill: none; stroke: #888; stroke-width: 1; opacity: 1;"></line><line transform="translate(118,0)" x2="0" y2="5" style="fill: none; stroke: #888; stroke-width: 1; opacity: 1;"></line><line transform="translate(129,0)" x2="0" y2="5" style="fill: none; stroke: #888; stroke-width: 1; opacity: 1;"></line><line transform="translate(141,0)" x2="0" y2="5" style="fill: none; stroke: #888; stroke-width: 1; opacity: 1;"></line><line transform="translate(152,0)" x2="0" y2="5" style="fill: none; stroke: #888; stroke-width: 1; opacity: 1;"></line><line transform="translate(163,0)" x2="0" y2="5" style="fill: none; stroke: #888; stroke-width: 1; opacity: 1;"></line><line transform="translate(175,0)" x2="0" y2="5" style="fill: none; stroke: #888; stroke-width: 1; opacity: 1;"></line><line transform="translate(186,0)" x2="0" y2="5" style="fill: none; stroke: #888; stroke-width: 1; opacity: 1;"></line><line transform="translate(198,0)" x2="0" y2="5" style="fill: none; stroke: #888; stroke-width: 1; opacity: 1;"></line><line transform="translate(209,0)" x2="0" y2="5" style="fill: none; stroke: #888; stroke-width: 1; opacity: 1;"></line><line transform="translate(220,0)" x2="0" y2="5" style="fill: none; stroke: #888; stroke-width: 1; opacity: 1;"></line><line transform="translate(232,0)" x2="0" y2="5" style="fill: none; stroke: #888; stroke-width: 1; opacity: 1;"></line><line transform="translate(243,0)" x2="0" y2="5" style="fill: none; stroke: #888; stroke-width: 1; opacity: 1;"></line><line transform="translate(254,0)" x2="0" y2="5" style="fill: none; stroke: #888; stroke-width: 1; opacity: 1;"></line><line transform="translate(266,0)" x2="0" y2="5" style="fill: none; stroke: #888; stroke-width: 1; opacity: 1;"></line><line transform="translate(277,0)" x2="0" y2="5" style="fill: none; stroke: #888; stroke-width: 1; opacity: 1;"></line><line transform="translate(288,0)" x2="0" y2="5" style="fill: none; stroke: #888; stroke-width: 1; opacity: 1;"></line><line transform="translate(300,0)" x2="0" y2="5" style="fill: none; stroke: #888; stroke-width: 1; opacity: 1;"></line><line transform="translate(311,0)" x2="0" y2="5" style="fill: none; stroke: #888; stroke-width: 1; opacity: 1;"></line><line transform="translate(322,0)" x2="0" y2="5" style="fill: none; stroke: #888; stroke-width: 1; opacity: 1;"></line><line transform="translate(334,0)" x2="0" y2="5" style="fill: none; stroke: #888; stroke-width: 1; opacity: 1;"></line><line transform="translate(345,0)" x2="0" y2="5" style="fill: none; stroke: #888; stroke-width: 1; opacity: 1;"></line><line transform="translate(356,0)" x2="0" y2="5" style="fill: none; stroke: #888; stroke-width: 1; opacity: 1;"></line><line transform="translate(368,0)" x2="0" y2="5" style="fill: none; stroke: #888; stroke-width: 1; opacity: 1;"></line><line transform="translate(379,0)" x2="0" y2="5" style="fill: none; stroke: #888; stroke-width: 1; opacity: 1;"></line><line transform="translate(390,0)" x2="0" y2="5" style="fill: none; stroke: #888; stroke-width: 1; opacity: 1;"></line><line transform="translate(402,0)" x2="0" y2="5" style="fill: none; stroke: #888; stroke-width: 1; opacity: 1;"></line><line transform="translate(413,0)" x2="0" y2="5" style="fill: none; stroke: #888; stroke-width: 1; opacity: 1;"></line><line transform="translate(424,0)" x2="0" y2="5" style="fill: none; stroke: #888; stroke-width: 1; opacity: 1;"></line><line transform="translate(436,0)" x2="0" y2="5" style="fill: none; stroke: #888; stroke-width: 1; opacity: 1;"></line><line transform="translate(447,0)" x2="0" y2="5" style="fill: none; stroke: #888; stroke-width: 1; opacity: 1;"></line><line transform="translate(458,0)" x2="0" y2="5" style="fill: none; stroke: #888; stroke-width: 1; opacity: 1;"></line><line transform="translate(470,0)" x2="0" y2="5" style="fill: none; stroke: #888; stroke-width: 1; opacity: 1;"></line><line transform="translate(481,0)" x2="0" y2="5" style="fill: none; stroke: #888; stroke-width: 1; opacity: 1;"></line><line transform="translate(492,0)" x2="0" y2="5" style="fill: none; stroke: #888; stroke-width: 1; opacity: 1;"></line><line transform="translate(504,0)" x2="0" y2="5" style="fill: none; stroke: #888; stroke-width: 1; opacity: 1;"></line><line transform="translate(515,0)" x2="0" y2="5" style="fill: none; stroke: #888; stroke-width: 1; opacity: 1;"></line><line transform="translate(526,0)" x2="0" y2="5" style="fill: none; stroke: #888; stroke-width: 1; opacity: 1;"></line><line transform="translate(538,0)" x2="0" y2="5" style="fill: none; stroke: #888; stroke-width: 1; opacity: 1;"></line><line transform="translate(549,0)" x2="0" y2="5" style="fill: none; stroke: #888; stroke-width: 1; opacity: 1;"></line><line transform="translate(560,0)" x2="0" y2="5" style="fill: none; stroke: #888; stroke-width: 1; opacity: 1;"></line><line transform="translate(572,0)" x2="0" y2="5" style="fill: none; stroke: #888; stroke-width: 1; opacity: 1;"></line><line transform="translate(583,0)" x2="0" y2="5" style="fill: none; stroke: #888; stroke-width: 1; opacity: 1;"></line><line transform="translate(595,0)" x2="0" y2="5" style="fill: none; stroke: #888; stroke-width: 1; opacity: 1;"></line><line transform="translate(606,0)" x2="0" y2="5" style="fill: none; stroke: #888; stroke-width: 1; opacity: 1;"></line><line transform="translate(617,0)" x2="0" y2="5" style="fill: none; stroke: #888; stroke-width: 1; opacity: 1;"></line><line transform="translate(629,0)" x2="0" y2="5" style="fill: none; stroke: #888; stroke-width: 1; opacity: 1;"></line><line transform="translate(640,0)" x2="0" y2="5" style="fill: none; stroke: #888; stroke-width: 1; opacity: 1;"></line><line transform="translate(651,0)" x2="0" y2="5" style="fill: none; stroke: #888; stroke-width: 1; opacity: 1;"></line><line transform="translate(663,0)" x2="0" y2="5" style="fill: none; stroke: #888; stroke-width: 1; opacity: 1;"></line><line transform="translate(674,0)" x2="0" y2="5" style="fill: none; stroke: #888; stroke-width: 1; opacity: 1;"></line><line transform="translate(685,0)" x2="0" y2="5" style="fill: none; stroke: #888; stroke-width: 1; opacity: 1;"></line><line transform="translate(697,0)" x2="0" y2="5" style="fill: none; stroke: #888; stroke-width: 1; opacity: 1;"></line><line transform="translate(708,0)" x2="0" y2="5" style="fill: none; stroke: #888; stroke-width: 1; opacity: 1;"></line><line transform="translate(719,0)" x2="0" y2="5" style="fill: none; stroke: #888; stroke-width: 1; opacity: 1;"></line><line transform="translate(731,0)" x2="0" y2="5" style="fill: none; stroke: #888; stroke-width: 1; opacity: 1;"></line><line transform="translate(742,0)" x2="0" y2="5" style="fill: none; stroke: #888; stroke-width: 1; opacity: 1;"></line><line transform="translate(753,0)" x2="0" y2="5" style="fill: none; stroke: #888; stroke-width: 1; opacity: 1;"></line></g><g class="mark-text role-axis-label" style="pointer-events: none;"><text text-anchor="end" transform="translate(4.671641791044694,7) rotate(270) translate(0,3)" style="font-family: sans-serif; font-size: 10px; fill: #000; opacity: 1;">null</text><text text-anchor="end" transform="translate(16.014925373134247,7) rotate(270) translate(0,3)" style="font-family: sans-serif; font-size: 10px; fill: #000; opacity: 1;">Abásfalva</text><text text-anchor="end" transform="translate(27.3582089552238,7) rotate(270) translate(0,3)" style="font-family: sans-serif; font-size: 10px; fill: #000; opacity: 1;">Ajnád</text><text text-anchor="end" transform="translate(38.70149253731335,7) rotate(270) translate(0,3)" style="font-family: sans-serif; font-size: 10px; fill: #000; opacity: 1;">Bakta</text><text text-anchor="end" transform="translate(50.044776119402904,7) rotate(270) translate(0,3)" style="font-family: sans-serif; font-size: 10px; fill: #000; opacity: 1;">Borzont</text><text text-anchor="end" transform="translate(61.38805970149246,7) rotate(270) translate(0,3)" style="font-family: sans-serif; font-size: 10px; fill: #000; opacity: 1;">Bánkfalva</text><text text-anchor="end" transform="translate(72.731343283582,7) rotate(270) translate(0,3)" style="font-family: sans-serif; font-size: 10px; fill: #000; opacity: 1;">Bélbor</text><text text-anchor="end" transform="translate(84.07462686567156,7) rotate(270) translate(0,3)" style="font-family: sans-serif; font-size: 10px; fill: #000; opacity: 1;">Bögöz</text><text text-anchor="end" transform="translate(95.41791044776112,7) rotate(270) translate(0,3)" style="font-family: sans-serif; font-size: 10px; fill: #000; opacity: 1;">Büdösfürdő</text><text text-anchor="end" transform="translate(106.76119402985067,7) rotate(270) translate(0,3)" style="font-family: sans-serif; font-size: 10px; fill: #000; opacity: 1;">Csobotfalva</text><text text-anchor="end" transform="translate(118.10447761194023,7) rotate(270) translate(0,3)" style="font-family: sans-serif; font-size: 10px; fill: #000; opacity: 1;">Csíkdelne</text><text text-anchor="end" transform="translate(129.4477611940298,7) rotate(270) translate(0,3)" style="font-family: sans-serif; font-size: 10px; fill: #000; opacity: 1;">Csíkdánfalva</text><text text-anchor="end" transform="translate(140.79104477611932,7) rotate(270) translate(0,3)" style="font-family: sans-serif; font-size: 10px; fill: #000; opacity: 1;">Csíkkarcfalva</text><text text-anchor="end" transform="translate(152.13432835820888,7) rotate(270) translate(0,3)" style="font-family: sans-serif; font-size: 10px; fill: #000; opacity: 1;">Csíkrákos</text><text text-anchor="end" transform="translate(163.47761194029843,7) rotate(270) translate(0,3)" style="font-family: sans-serif; font-size: 10px; fill: #000; opacity: 1;">Csíkszentdomokos</text><text text-anchor="end" transform="translate(174.82089552238799,7) rotate(270) translate(0,3)" style="font-family: sans-serif; font-size: 10px; fill: #000; opacity: 1;">Csíkszentgyörgy</text><text text-anchor="end" transform="translate(186.16417910447754,7) rotate(270) translate(0,3)" style="font-family: sans-serif; font-size: 10px; fill: #000; opacity: 1;">Csíkszentkirály</text><text text-anchor="end" transform="translate(197.5074626865671,7) rotate(270) translate(0,3)" style="font-family: sans-serif; font-size: 10px; fill: #000; opacity: 1;">Csíkszentlélek</text><text text-anchor="end" transform="translate(208.85074626865665,7) rotate(270) translate(0,3)" style="font-family: sans-serif; font-size: 10px; fill: #000; opacity: 1;">Csíkszentmihály</text><text text-anchor="end" transform="translate(220.1940298507462,7) rotate(270) translate(0,3)" style="font-family: sans-serif; font-size: 10px; fill: #000; opacity: 1;">Csíkszentmárton</text><text text-anchor="end" transform="translate(231.53731343283576,7) rotate(270) translate(0,3)" style="font-family: sans-serif; font-size: 10px; fill: #000; opacity: 1;">Csíkszenttamás</text><text text-anchor="end" transform="translate(242.8805970149253,7) rotate(270) translate(0,3)" style="font-family: sans-serif; font-size: 10px; fill: #000; opacity: 1;">Csíkszereda</text><text text-anchor="end" transform="translate(254.22388059701487,7) rotate(270) translate(0,3)" style="font-family: sans-serif; font-size: 10px; fill: #000; opacity: 1;">Etéd</text><text text-anchor="end" transform="translate(265.5671641791044,7) rotate(270) translate(0,3)" style="font-family: sans-serif; font-size: 10px; fill: #000; opacity: 1;">Fenyéd</text><text text-anchor="end" transform="translate(276.91044776119395,7) rotate(270) translate(0,3)" style="font-family: sans-serif; font-size: 10px; fill: #000; opacity: 1;">Fitód</text><text text-anchor="end" transform="translate(288.2537313432835,7) rotate(270) translate(0,3)" style="font-family: sans-serif; font-size: 10px; fill: #000; opacity: 1;">Gyergyóditró</text><text text-anchor="end" transform="translate(299.59701492537306,7) rotate(270) translate(0,3)" style="font-family: sans-serif; font-size: 10px; fill: #000; opacity: 1;">Gyergyóholló</text><text text-anchor="end" transform="translate(310.9402985074626,7) rotate(270) translate(0,3)" style="font-family: sans-serif; font-size: 10px; fill: #000; opacity: 1;">Gyergyóremete</text><text text-anchor="end" transform="translate(322.28358208955217,7) rotate(270) translate(0,3)" style="font-family: sans-serif; font-size: 10px; fill: #000; opacity: 1;">Gyergyószentmiklós</text><text text-anchor="end" transform="translate(333.6268656716417,7) rotate(270) translate(0,3)" style="font-family: sans-serif; font-size: 10px; fill: #000; opacity: 1;">Gyergyóújfalu</text><text text-anchor="end" transform="translate(344.9701492537313,7) rotate(270) translate(0,3)" style="font-family: sans-serif; font-size: 10px; fill: #000; opacity: 1;">Gyimesfelsőlok</text><text text-anchor="end" transform="translate(356.31343283582083,7) rotate(270) translate(0,3)" style="font-family: sans-serif; font-size: 10px; fill: #000; opacity: 1;">Heveder</text><text text-anchor="end" transform="translate(367.6567164179104,7) rotate(270) translate(0,3)" style="font-family: sans-serif; font-size: 10px; fill: #000; opacity: 1;">Homoródalmás</text><text text-anchor="end" transform="translate(378.99999999999994,7) rotate(270) translate(0,3)" style="font-family: sans-serif; font-size: 10px; fill: #000; opacity: 1;">Homoródfürdő</text><text text-anchor="end" transform="translate(390.3432835820895,7) rotate(270) translate(0,3)" style="font-family: sans-serif; font-size: 10px; fill: #000; opacity: 1;">Homoródkeményfalva</text><text text-anchor="end" transform="translate(401.68656716417905,7) rotate(270) translate(0,3)" style="font-family: sans-serif; font-size: 10px; fill: #000; opacity: 1;">Homoródremete</text><text text-anchor="end" transform="translate(413.0298507462686,7) rotate(270) translate(0,3)" style="font-family: sans-serif; font-size: 10px; fill: #000; opacity: 1;">Homoródszentlászló</text><text text-anchor="end" transform="translate(424.37313432835816,7) rotate(270) translate(0,3)" style="font-family: sans-serif; font-size: 10px; fill: #000; opacity: 1;">Homoródszentpéter</text><text text-anchor="end" transform="translate(435.7164179104477,7) rotate(270) translate(0,3)" style="font-family: sans-serif; font-size: 10px; fill: #000; opacity: 1;">Ivó</text><text text-anchor="end" transform="translate(447.0597014925373,7) rotate(270) translate(0,3)" style="font-family: sans-serif; font-size: 10px; fill: #000; opacity: 1;">Kecset</text><text text-anchor="end" transform="translate(458.4029850746268,7) rotate(270) translate(0,3)" style="font-family: sans-serif; font-size: 10px; fill: #000; opacity: 1;">Kápolnásfalu</text><text text-anchor="end" transform="translate(469.7462686567164,7) rotate(270) translate(0,3)" style="font-family: sans-serif; font-size: 10px; fill: #000; opacity: 1;">Kászon</text><text text-anchor="end" transform="translate(481.08955223880594,7) rotate(270) translate(0,3)" style="font-family: sans-serif; font-size: 10px; fill: #000; opacity: 1;">Küsmöd</text><text text-anchor="end" transform="translate(492.4328358208955,7) rotate(270) translate(0,3)" style="font-family: sans-serif; font-size: 10px; fill: #000; opacity: 1;">Kőrispatak</text><text text-anchor="end" transform="translate(503.77611940298505,7) rotate(270) translate(0,3)" style="font-family: sans-serif; font-size: 10px; fill: #000; opacity: 1;">Libán</text><text text-anchor="end" transform="translate(515.1194029850747,7) rotate(270) translate(0,3)" style="font-family: sans-serif; font-size: 10px; fill: #000; opacity: 1;">Lóvész</text><text text-anchor="end" transform="translate(526.462686567164,7) rotate(270) translate(0,3)" style="font-family: sans-serif; font-size: 10px; fill: #000; opacity: 1;">Lövéte</text><text text-anchor="end" transform="translate(537.8059701492538,7) rotate(270) translate(0,3)" style="font-family: sans-serif; font-size: 10px; fill: #000; opacity: 1;">Marosfő</text><text text-anchor="end" transform="translate(549.1492537313433,7) rotate(270) translate(0,3)" style="font-family: sans-serif; font-size: 10px; fill: #000; opacity: 1;">Miklósfalva</text><text text-anchor="end" transform="translate(560.4925373134328,7) rotate(270) translate(0,3)" style="font-family: sans-serif; font-size: 10px; fill: #000; opacity: 1;">Orotva</text><text text-anchor="end" transform="translate(571.8358208955223,7) rotate(270) translate(0,3)" style="font-family: sans-serif; font-size: 10px; fill: #000; opacity: 1;">Pongrác tető</text><text text-anchor="end" transform="translate(583.179104477612,7) rotate(270) translate(0,3)" style="font-family: sans-serif; font-size: 10px; fill: #000; opacity: 1;">Pottyond</text><text text-anchor="end" transform="translate(594.5223880597015,7) rotate(270) translate(0,3)" style="font-family: sans-serif; font-size: 10px; fill: #000; opacity: 1;">Szent Anna-tó</text><text text-anchor="end" transform="translate(605.865671641791,7) rotate(270) translate(0,3)" style="font-family: sans-serif; font-size: 10px; fill: #000; opacity: 1;">Szentegyháza</text><text text-anchor="end" transform="translate(617.2089552238805,7) rotate(270) translate(0,3)" style="font-family: sans-serif; font-size: 10px; fill: #000; opacity: 1;">Székelykeresztúr</text><text text-anchor="end" transform="translate(628.5522388059702,7) rotate(270) translate(0,3)" style="font-family: sans-serif; font-size: 10px; fill: #000; opacity: 1;">Székelyudvarhely</text><text text-anchor="end" transform="translate(639.8955223880597,7) rotate(270) translate(0,3)" style="font-family: sans-serif; font-size: 10px; fill: #000; opacity: 1;">Szépviz</text><text text-anchor="end" transform="translate(651.2388059701492,7) rotate(270) translate(0,3)" style="font-family: sans-serif; font-size: 10px; fill: #000; opacity: 1;">Tarcsafalva</text><text text-anchor="end" transform="translate(662.5820895522387,7) rotate(270) translate(0,3)" style="font-family: sans-serif; font-size: 10px; fill: #000; opacity: 1;">Tekerőpatak</text><text text-anchor="end" transform="translate(673.9253731343284,7) rotate(270) translate(0,3)" style="font-family: sans-serif; font-size: 10px; fill: #000; opacity: 1;">Tusnádfürdõ</text><text text-anchor="end" transform="translate(685.2686567164179,7) rotate(270) translate(0,3)" style="font-family: sans-serif; font-size: 10px; fill: #000; opacity: 1;">Tusnádfürdő</text><text text-anchor="end" transform="translate(696.6119402985074,7) rotate(270) translate(0,3)" style="font-family: sans-serif; font-size: 10px; fill: #000; opacity: 1;">Vasláb</text><text text-anchor="end" transform="translate(707.9552238805969,7) rotate(270) translate(0,3)" style="font-family: sans-serif; font-size: 10px; fill: #000; opacity: 1;">Zetelaka</text><text text-anchor="end" transform="translate(719.2985074626866,7) rotate(270) translate(0,3)" style="font-family: sans-serif; font-size: 10px; fill: #000; opacity: 1;">Zeteváralja</text><text text-anchor="end" transform="translate(730.6417910447761,7) rotate(270) translate(0,3)" style="font-family: sans-serif; font-size: 10px; fill: #000; opacity: 1;">Zsögöd</text><text text-anchor="end" transform="translate(741.9850746268656,7) rotate(270) translate(0,3)" style="font-family: sans-serif; font-size: 10px; fill: #000; opacity: 1;">Zsögödfürdő</text><text text-anchor="end" transform="translate(753.3283582089551,7) rotate(270) translate(0,3)" style="font-family: sans-serif; font-size: 10px; fill: #000; opacity: 1;">Újszékely</text></g><g class="mark-rule role-axis-domain" style="pointer-events: none;"><line transform="translate(0,0)" x2="760" y2="0" style="fill: none; stroke: #888; stroke-width: 1; opacity: 1;"></line></g><g class="mark-text role-axis-title" style="pointer-events: none;"><text text-anchor="middle" transform="translate(380,117.265625)" style="font-family: sans-serif; font-size: 11px; font-weight: bold; fill: #000; opacity: 1;">Hargita megye</text></g></g></g></g><g class="mark-group role-axis"><g transform="translate(0.5,0.5)"><path class="background" d="M0,0h0v0h0Z" style="pointer-events: none; fill: none;"></path><g><g class="mark-rule role-axis-tick" style="pointer-events: none;"><line transform="translate(0,200)" x2="-5" y2="0" style="fill: none; stroke: #888; stroke-width: 1; opacity: 1;"></line><line transform="translate(0,171)" x2="-5" y2="0" style="fill: none; stroke: #888; stroke-width: 1; opacity: 1;"></line><line transform="translate(0,143)" x2="-5" y2="0" style="fill: none; stroke: #888; stroke-width: 1; opacity: 1;"></line><line transform="translate(0,114)" x2="-5" y2="0" style="fill: none; stroke: #888; stroke-width: 1; opacity: 1;"></line><line transform="translate(0,86)" x2="-5" y2="0" style="fill: none; stroke: #888; stroke-width: 1; opacity: 1;"></line><line transform="translate(0,57)" x2="-5" y2="0" style="fill: none; stroke: #888; stroke-width: 1; opacity: 1;"></line><line transform="translate(0,29)" x2="-5" y2="0" style="fill: none; stroke: #888; stroke-width: 1; opacity: 1;"></line><line transform="translate(0,0)" x2="-5" y2="0" style="fill: none; stroke: #888; stroke-width: 1; opacity: 1;"></line></g><g class="mark-text role-axis-label" style="pointer-events: none;"><text text-anchor="end" transform="translate(-7,203)" style="font-family: sans-serif; font-size: 10px; fill: #000; opacity: 1;">0</text><text text-anchor="end" transform="translate(-7,174.42857142857144)" style="font-family: sans-serif; font-size: 10px; fill: #000; opacity: 1;">2</text><text text-anchor="end" transform="translate(-7,145.85714285714286)" style="font-family: sans-serif; font-size: 10px; fill: #000; opacity: 1;">4</text><text text-anchor="end" transform="translate(-7,117.28571428571429)" style="font-family: sans-serif; font-size: 10px; fill: #000; opacity: 1;">6</text><text text-anchor="end" transform="translate(-7,88.71428571428572)" style="font-family: sans-serif; font-size: 10px; fill: #000; opacity: 1;">8</text><text text-anchor="end" transform="translate(-7,60.14285714285714)" style="font-family: sans-serif; font-size: 10px; fill: #000; opacity: 1;">10</text><text text-anchor="end" transform="translate(-7,31.571428571428584)" style="font-family: sans-serif; font-size: 10px; fill: #000; opacity: 1;">12</text><text text-anchor="end" transform="translate(-7,3)" style="font-family: sans-serif; font-size: 10px; fill: #000; opacity: 1;">14</text></g><g class="mark-rule role-axis-domain" style="pointer-events: none;"><line transform="translate(0,200)" x2="0" y2="-200" style="fill: none; stroke: #888; stroke-width: 1; opacity: 1;"></line></g><g class="mark-text role-axis-title" style="pointer-events: none;"><text text-anchor="middle" transform="translate(-22.123046875,100) rotate(-90) translate(0,-2)" style="font-family: sans-serif; font-size: 11px; font-weight: bold; fill: #000; opacity: 1;">Események száma</text></g></g></g></g></g></g></g></g></svg>