<svg class="marks" width="714" height="257" viewBox="0 0 714 257" version="1.1" xmlns="http://www.w3.org/2000/svg" xmlns:xlink="http://www.w3.org/1999/xlink"><g transform="translate(40,6)"><g class="mark-group role-frame root"><g transform="translate(0,0)"><path class="background" d="M0,0h0v200h0Z" style="fill: none;"></path><g><g class="mark-group role-scope concat_0_group"><g transform="translate(0,0)"><path class="background" d="M0.5,0.5h250v200h-250Z" style="fill: none; stroke: #ddd;"></path><g><g class="mark-group role-axis"><g transform="translate(0.5,0.5)"><path class="background" d="M0,0h0v0h0Z" style="pointer-events: none; fill: none;"></path><g><g class="mark-rule role-axis-grid" style="pointer-events: none;"><line transform="translate(0,200)" x2="250" y2="0" style="fill: none; stroke: #ddd; stroke-width: 1; opacity: 1;"></line><line transform="translate(0,164)" x2="250" y2="0" style="fill: none; stroke: #ddd; stroke-width: 1; opacity: 1;"></line><line transform="translate(0,127)" x2="250" y2="0" style="fill: none; stroke: #ddd; stroke-width: 1; opacity: 1;"></line><line transform="translate(0,91)" x2="250" y2="0" style="fill: none; stroke: #ddd; stroke-width: 1; opacity: 1;"></line><line transform="translate(0,55)" x2="250" y2="0" style="fill: none; stroke: #ddd; stroke-width: 1; opacity: 1;"></line><line transform="translate(0,18)" x2="250" y2="0" style="fill: none; stroke: #ddd; stroke-width: 1; opacity: 1;"></line></g></g></g></g><g class="mark-rect role-mark concat_0_marks"><path d="M63.54166666666667,98.18181818181819h18.75v47.27272727272728h-18.75Z" style="fill: #35978f;"></path><path d="M63.54166666666667,145.45454545454547h18.75v29.090909090909093h-18.75Z" style="fill: #80cdc1;"></path><path d="M105.20833333333333,185.45454545454547h18.75v14.545454545454533h-18.75Z" style="fill: #8c510a;"></path><path d="M146.875,0h18.75v76.36363636363637h-18.75Z" style="fill: #35978f;"></path><path d="M105.20833333333333,43.636363636363626h18.75v58.18181818181819h-18.75Z" style="fill: #35978f;"></path><path d="M126.04166666666667,196.36363636363637h18.75v3.636363636363626h-18.75Z" style="fill: #543005;"></path><path d="M209.375,101.81818181818181h18.75v58.18181818181819h-18.75Z" style="fill: #35978f;"></path><path d="M126.04166666666667,25.454545454545467h18.75v54.54545454545453h-18.75Z" style="fill: #35978f;"></path><path d="M126.04166666666667,112.72727272727273h18.75v58.18181818181817h-18.75Z" style="fill: #dfc27d;"></path><path d="M188.54166666666669,163.63636363636363h18.75v14.545454545454561h-18.75Z" style="fill: #dfc27d;"></path><path d="M230.20833333333331,109.0909090909091h18.75v50.90909090909091h-18.75Z" style="fill: #35978f;"></path><path d="M1.0416666666666714,196.36363636363637h18.75v3.636363636363626h-18.75Z" style="fill: #543005;"></path><path d="M21.875000000000004,152.72727272727272h18.75v29.090909090909093h-18.75Z" style="fill: #35978f;"></path><path d="M105.20833333333333,101.81818181818181h18.75v50.90909090909091h-18.75Z" style="fill: #80cdc1;"></path><path d="M146.875,152.72727272727272h18.75v47.27272727272728h-18.75Z" style="fill: #8c510a;"></path><path d="M167.70833333333331,178.1818181818182h18.75v21.818181818181813h-18.75Z" style="fill: #8c510a;"></path><path d="M209.375,160h18.75v29.090909090909093h-18.75Z" style="fill: #80cdc1;"></path><path d="M1.0416666666666714,134.54545454545456h18.75v40h-18.75Z" style="fill: #35978f;"></path><path d="M84.375,112.72727272727273h18.75v25.454545454545453h-18.75Z" style="fill: #80cdc1;"></path><path d="M126.04166666666667,80h18.75v32.727272727272734h-18.75Z" style="fill: #80cdc1;"></path><path d="M167.70833333333331,29.090909090909093h18.75v76.36363636363636h-18.75Z" style="fill: #35978f;"></path><path d="M188.54166666666669,94.54545454545456h18.75v54.54545454545453h-18.75Z" style="fill: #35978f;"></path><path d="M42.708333333333336,98.18181818181819h18.75v25.45454545454544h-18.75Z" style="fill: #35978f;"></path><path d="M84.375,61.81818181818181h18.75v50.90909090909092h-18.75Z" style="fill: #35978f;"></path><path d="M84.375,167.27272727272728h18.75v32.72727272727272h-18.75Z" style="fill: #8c510a;"></path><path d="M105.20833333333333,152.72727272727272h18.75v32.72727272727275h-18.75Z" style="fill: #dfc27d;"></path><path d="M146.875,105.45454545454545h18.75v47.272727272727266h-18.75Z" style="fill: #dfc27d;"></path><path d="M167.70833333333331,145.45454545454547h18.75v32.72727272727272h-18.75Z" style="fill: #dfc27d;"></path><path d="M63.54166666666667,178.1818181818182h18.75v18.181818181818187h-18.75Z" style="fill: #8c510a;"></path><path d="M84.375,138.1818181818182h18.75v29.090909090909093h-18.75Z" style="fill: #dfc27d;"></path><path d="M146.875,76.36363636363637h18.75v29.09090909090908h-18.75Z" style="fill: #80cdc1;"></path><path d="M167.70833333333331,105.45454545454545h18.75v40.000000000000014h-18.75Z" style="fill: #80cdc1;"></path><path d="M63.54166666666667,196.36363636363637h18.75v3.636363636363626h-18.75Z" style="fill: #543005;"></path><path d="M230.20833333333331,160h18.75v25.454545454545467h-18.75Z" style="fill: #80cdc1;"></path><path d="M126.04166666666667,170.9090909090909h18.75v25.454545454545467h-18.75Z" style="fill: #8c510a;"></path><path d="M188.54166666666669,178.1818181818182h18.75v21.818181818181813h-18.75Z" style="fill: #8c510a;"></path><path d="M21.875000000000004,192.72727272727272h18.75v7.2727272727272805h-18.75Z" style="fill: #8c510a;"></path><path d="M42.708333333333336,174.54545454545456h18.75v21.818181818181813h-18.75Z" style="fill: #dfc27d;"></path><path d="M209.375,189.0909090909091h18.75v7.2727272727272805h-18.75Z" style="fill: #dfc27d;"></path><path d="M209.375,196.36363636363637h18.75v3.636363636363626h-18.75Z" style="fill: #8c510a;"></path><path d="M230.20833333333331,192.72727272727272h18.75v3.6363636363636545h-18.75Z" style="fill: #8c510a;"></path><path d="M230.20833333333331,185.45454545454547h18.75v7.272727272727252h-18.75Z" style="fill: #dfc27d;"></path><path d="M230.20833333333331,196.36363636363637h18.75v3.636363636363626h-18.75Z" style="fill: #543005;"></path><path d="M1.0416666666666714,189.0909090909091h18.75v7.2727272727272805h-18.75Z" style="fill: #8c510a;"></path><path d="M1.0416666666666714,174.54545454545456h18.75v14.545454545454533h-18.75Z" style="fill: #80cdc1;"></path><path d="M63.54166666666667,174.54545454545456h18.75v3.636363636363626h-18.75Z" style="fill: #dfc27d;"></path><path d="M188.54166666666669,149.0909090909091h18.75v14.545454545454533h-18.75Z" style="fill: #80cdc1;"></path><path d="M21.875000000000004,181.8181818181818h18.75v7.2727272727272805h-18.75Z" style="fill: #80cdc1;"></path><path d="M21.875000000000004,189.0909090909091h18.75v3.636363636363626h-18.75Z" style="fill: #dfc27d;"></path><path d="M42.708333333333336,123.63636363636363h18.75v50.909090909090935h-18.75Z" style="fill: #80cdc1;"></path><path d="M42.708333333333336,196.36363636363637h18.75v3.636363636363626h-18.75Z" style="fill: #543005;"></path></g><g class="mark-group role-axis"><g transform="translate(0.5,200.5)"><path class="background" d="M0,0h0v0h0Z" style="pointer-events: none; fill: none;"></path><g><g class="mark-rule role-axis-tick" style="pointer-events: none;"><line transform="translate(9,0)" x2="0" y2="5" style="fill: none; stroke: #888; stroke-width: 1; opacity: 1;"></line><line transform="translate(30,0)" x2="0" y2="5" style="fill: none; stroke: #888; stroke-width: 1; opacity: 1;"></line><line transform="translate(51,0)" x2="0" y2="5" style="fill: none; stroke: #888; stroke-width: 1; opacity: 1;"></line><line transform="translate(72,0)" x2="0" y2="5" style="fill: none; stroke: #888; stroke-width: 1; opacity: 1;"></line><line transform="translate(93,0)" x2="0" y2="5" style="fill: none; stroke: #888; stroke-width: 1; opacity: 1;"></line><line transform="translate(114,0)" x2="0" y2="5" style="fill: none; stroke: #888; stroke-width: 1; opacity: 1;"></line><line transform="translate(134,0)" x2="0" y2="5" style="fill: none; stroke: #888; stroke-width: 1; opacity: 1;"></line><line transform="translate(155,0)" x2="0" y2="5" style="fill: none; stroke: #888; stroke-width: 1; opacity: 1;"></line><line transform="translate(176,0)" x2="0" y2="5" style="fill: none; stroke: #888; stroke-width: 1; opacity: 1;"></line><line transform="translate(197,0)" x2="0" y2="5" style="fill: none; stroke: #888; stroke-width: 1; opacity: 1;"></line><line transform="translate(218,0)" x2="0" y2="5" style="fill: none; stroke: #888; stroke-width: 1; opacity: 1;"></line><line transform="translate(239,0)" x2="0" y2="5" style="fill: none; stroke: #888; stroke-width: 1; opacity: 1;"></line></g><g class="mark-text role-axis-label" style="pointer-events: none;"><text text-anchor="end" transform="translate(9.416666666666671,7) rotate(270) translate(0,3)" style="font-family: sans-serif; font-size: 10px; fill: #000; opacity: 1;">Jan</text><text text-anchor="end" transform="translate(30.250000000000004,7) rotate(270) translate(0,3)" style="font-family: sans-serif; font-size: 10px; fill: #000; opacity: 1;">Feb</text><text text-anchor="end" transform="translate(51.083333333333336,7) rotate(270) translate(0,3)" style="font-family: sans-serif; font-size: 10px; fill: #000; opacity: 1;">Mar</text><text text-anchor="end" transform="translate(71.91666666666667,7) rotate(270) translate(0,3)" style="font-family: sans-serif; font-size: 10px; fill: #000; opacity: 1;">Apr</text><text text-anchor="end" transform="translate(92.75,7) rotate(270) translate(0,3)" style="font-family: sans-serif; font-size: 10px; fill: #000; opacity: 1;">May</text><text text-anchor="end" transform="translate(113.58333333333333,7) rotate(270) translate(0,3)" style="font-family: sans-serif; font-size: 10px; fill: #000; opacity: 1;">Jun</text><text text-anchor="end" transform="translate(134.41666666666669,7) rotate(270) translate(0,3)" style="font-family: sans-serif; font-size: 10px; fill: #000; opacity: 1;">Jul</text><text text-anchor="end" transform="translate(155.25,7) rotate(270) translate(0,3)" style="font-family: sans-serif; font-size: 10px; fill: #000; opacity: 1;">Aug</text><text text-anchor="end" transform="translate(176.08333333333331,7) rotate(270) translate(0,3)" style="font-family: sans-serif; font-size: 10px; fill: #000; opacity: 1;">Sep</text><text text-anchor="end" transform="translate(196.91666666666669,7) rotate(270) translate(0,3)" style="font-family: sans-serif; font-size: 10px; fill: #000; opacity: 1;">Oct</text><text text-anchor="end" transform="translate(217.75,7) rotate(270) translate(0,3)" style="font-family: sans-serif; font-size: 10px; fill: #000; opacity: 1;">Nov</text><text text-anchor="end" transform="translate(238.58333333333331,7) rotate(270) translate(0,3)" style="font-family: sans-serif; font-size: 10px; fill: #000; opacity: 1;">Dec</text></g><g class="mark-rule role-axis-domain" style="pointer-events: none;"><line transform="translate(0,0)" x2="250" y2="0" style="fill: none; stroke: #888; stroke-width: 1; opacity: 1;"></line></g><g class="mark-text role-axis-title" style="pointer-events: none;"><text text-anchor="middle" transform="translate(125,38.8916015625)" style="font-family: sans-serif; font-size: 11px; font-weight: bold; fill: #000; opacity: 1;">Hónap</text></g></g></g></g><g class="mark-group role-axis"><g transform="translate(0.5,0.5)"><path class="background" d="M0,0h0v0h0Z" style="pointer-events: none; fill: none;"></path><g><g class="mark-rule role-axis-tick" style="pointer-events: none;"><line transform="translate(0,200)" x2="-5" y2="0" style="fill: none; stroke: #888; stroke-width: 1; opacity: 1;"></line><line transform="translate(0,164)" x2="-5" y2="0" style="fill: none; stroke: #888; stroke-width: 1; opacity: 1;"></line><line transform="translate(0,127)" x2="-5" y2="0" style="fill: none; stroke: #888; stroke-width: 1; opacity: 1;"></line><line transform="translate(0,91)" x2="-5" y2="0" style="fill: none; stroke: #888; stroke-width: 1; opacity: 1;"></line><line transform="translate(0,55)" x2="-5" y2="0" style="fill: none; stroke: #888; stroke-width: 1; opacity: 1;"></line><line transform="translate(0,18)" x2="-5" y2="0" style="fill: none; stroke: #888; stroke-width: 1; opacity: 1;"></line></g><g class="mark-text role-axis-label" style="pointer-events: none;"><text text-anchor="end" transform="translate(-7,203)" style="font-family: sans-serif; font-size: 10px; fill: #000; opacity: 1;">0</text><text text-anchor="end" transform="translate(-7,166.63636363636363)" style="font-family: sans-serif; font-size: 10px; fill: #000; opacity: 1;">10</text><text text-anchor="end" transform="translate(-7,130.27272727272725)" style="font-family: sans-serif; font-size: 10px; fill: #000; opacity: 1;">20</text><text text-anchor="end" transform="translate(-7,93.90909090909092)" style="font-family: sans-serif; font-size: 10px; fill: #000; opacity: 1;">30</text><text text-anchor="end" transform="translate(-7,57.54545454545453)" style="font-family: sans-serif; font-size: 10px; fill: #000; opacity: 1;">40</text><text text-anchor="end" transform="translate(-7,21.181818181818187)" style="font-family: sans-serif; font-size: 10px; fill: #000; opacity: 1;">50</text></g><g class="mark-rule role-axis-domain" style="pointer-events: none;"><line transform="translate(0,200)" x2="0" y2="-200" style="fill: none; stroke: #888; stroke-width: 1; opacity: 1;"></line></g><g class="mark-text role-axis-title" style="pointer-events: none;"><text text-anchor="middle" transform="translate(-22.123046875,100) rotate(-90) translate(0,-2)" style="font-family: sans-serif; font-size: 11px; font-weight: bold; fill: #000; opacity: 1;">Események száma</text></g></g></g></g></g></g></g><g class="mark-group role-scope concat_1_group"><g transform="translate(311,0)"><path class="background" d="M0.5,0.5h250v200h-250Z" style="fill: none; stroke: #ddd;"></path><g><g class="mark-group role-axis"><g transform="translate(0.5,0.5)"><path class="background" d="M0,0h0v0h0Z" style="pointer-events: none; fill: none;"></path><g><g class="mark-rule role-axis-grid" style="pointer-events: none;"><line transform="translate(0,200)" x2="250" y2="0" style="fill: none; stroke: #ddd; stroke-width: 1; opacity: 1;"></line><line transform="translate(0,164)" x2="250" y2="0" style="fill: none; stroke: #ddd; stroke-width: 1; opacity: 1;"></line><line transform="translate(0,127)" x2="250" y2="0" style="fill: none; stroke: #ddd; stroke-width: 1; opacity: 1;"></line><line transform="translate(0,91)" x2="250" y2="0" style="fill: none; stroke: #ddd; stroke-width: 1; opacity: 1;"></line><line transform="translate(0,55)" x2="250" y2="0" style="fill: none; stroke: #ddd; stroke-width: 1; opacity: 1;"></line><line transform="translate(0,18)" x2="250" y2="0" style="fill: none; stroke: #ddd; stroke-width: 1; opacity: 1;"></line></g></g></g></g><g class="mark-rect role-mark concat_1_marks"><path d="M0.8928571428571388,192.72727272727272h16.071428571428573v3.6363636363636545h-16.071428571428573Z" style="fill: #35978f;"></path><path d="M0.8928571428571388,196.36363636363637h16.071428571428573v1.818181818181813h-16.071428571428573Z" style="fill: #80cdc1;"></path><path d="M0.8928571428571388,198.1818181818182h16.071428571428573v1.818181818181813h-16.071428571428573Z" style="fill: #8c510a;"></path><path d="M18.749999999999996,187.27272727272728h16.071428571428573v10.909090909090907h-16.071428571428573Z" style="fill: #35978f;"></path><path d="M18.749999999999996,198.1818181818182h16.071428571428573v1.818181818181813h-16.071428571428573Z" style="fill: #543005;"></path><path d="M36.607142857142854,180h16.071428571428573v16.363636363636374h-16.071428571428573Z" style="fill: #35978f;"></path><path d="M36.607142857142854,196.36363636363637h16.071428571428573v3.636363636363626h-16.071428571428573Z" style="fill: #dfc27d;"></path><path d="M54.46428571428571,198.1818181818182h16.071428571428573v1.818181818181813h-16.071428571428573Z" style="fill: #543005;"></path><path d="M54.46428571428571,181.8181818181818h16.071428571428573v5.4545454545454675h-16.071428571428573Z" style="fill: #35978f;"></path><path d="M54.46428571428571,187.27272727272728h16.071428571428573v3.636363636363626h-16.071428571428573Z" style="fill: #80cdc1;"></path><path d="M54.46428571428571,190.9090909090909h16.071428571428573v7.2727272727272805h-16.071428571428573Z" style="fill: #8c510a;"></path><path d="M72.32142857142857,178.1818181818182h16.071428571428573v10.909090909090907h-16.071428571428573Z" style="fill: #35978f;"></path><path d="M72.32142857142857,189.0909090909091h16.071428571428573v7.2727272727272805h-16.071428571428573Z" style="fill: #80cdc1;"></path><path d="M72.32142857142857,196.36363636363637h16.071428571428573v3.636363636363626h-16.071428571428573Z" style="fill: #dfc27d;"></path><path d="M90.17857142857143,167.27272727272728h16.071428571428573v14.545454545454533h-16.071428571428573Z" style="fill: #35978f;"></path><path d="M90.17857142857143,190.9090909090909h16.071428571428573v9.090909090909093h-16.071428571428573Z" style="fill: #8c510a;"></path><path d="M90.17857142857143,185.45454545454547h16.071428571428573v5.454545454545439h-16.071428571428573Z" style="fill: #dfc27d;"></path><path d="M90.17857142857143,181.8181818181818h16.071428571428573v3.6363636363636545h-16.071428571428573Z" style="fill: #80cdc1;"></path><path d="M108.03571428571428,194.54545454545453h16.071428571428573v5.4545454545454675h-16.071428571428573Z" style="fill: #8c510a;"></path><path d="M108.03571428571428,156.36363636363637h16.071428571428573v18.181818181818187h-16.071428571428573Z" style="fill: #35978f;"></path><path d="M108.03571428571428,180h16.071428571428573v14.545454545454533h-16.071428571428573Z" style="fill: #dfc27d;"></path><path d="M108.03571428571428,174.54545454545456h16.071428571428573v5.454545454545439h-16.071428571428573Z" style="fill: #80cdc1;"></path><path d="M125.89285714285714,172.72727272727272h16.071428571428573v9.090909090909093h-16.071428571428573Z" style="fill: #35978f;"></path><path d="M125.89285714285714,198.1818181818182h16.071428571428573v1.818181818181813h-16.071428571428573Z" style="fill: #543005;"></path><path d="M125.89285714285714,192.72727272727272h16.071428571428573v5.4545454545454675h-16.071428571428573Z" style="fill: #8c510a;"></path><path d="M125.89285714285714,185.45454545454547h16.071428571428573v7.272727272727252h-16.071428571428573Z" style="fill: #dfc27d;"></path><path d="M125.89285714285714,181.8181818181818h16.071428571428573v3.6363636363636545h-16.071428571428573Z" style="fill: #80cdc1;"></path><path d="M143.75,143.63636363636363h16.071428571428573v29.090909090909093h-16.071428571428573Z" style="fill: #35978f;"></path><path d="M143.75,172.72727272727272h16.071428571428573v12.727272727272748h-16.071428571428573Z" style="fill: #80cdc1;"></path><path d="M143.75,185.45454545454547h16.071428571428573v9.090909090909065h-16.071428571428573Z" style="fill: #dfc27d;"></path><path d="M143.75,194.54545454545453h16.071428571428573v5.4545454545454675h-16.071428571428573Z" style="fill: #8c510a;"></path><path d="M161.60714285714286,189.0909090909091h16.071428571428573v10.909090909090907h-16.071428571428573Z" style="fill: #8c510a;"></path><path d="M161.60714285714286,158.1818181818182h16.071428571428573v18.181818181818187h-16.071428571428573Z" style="fill: #35978f;"></path><path d="M161.60714285714286,176.36363636363637h16.071428571428573v12.72727272727272h-16.071428571428573Z" style="fill: #dfc27d;"></path><path d="M179.46428571428572,154.54545454545456h16.071428571428573v18.18181818181816h-16.071428571428573Z" style="fill: #35978f;"></path><path d="M179.46428571428572,172.72727272727272h16.071428571428573v5.4545454545454675h-16.071428571428573Z" style="fill: #80cdc1;"></path><path d="M179.46428571428572,189.0909090909091h16.071428571428573v10.909090909090907h-16.071428571428573Z" style="fill: #8c510a;"></path><path d="M179.46428571428572,178.1818181818182h16.071428571428573v10.909090909090907h-16.071428571428573Z" style="fill: #dfc27d;"></path><path d="M197.32142857142858,41.81818181818181h16.071428571428573v72.72727272727273h-16.071428571428573Z" style="fill: #35978f;"></path><path d="M197.32142857142858,147.27272727272728h16.071428571428573v29.090909090909093h-16.071428571428573Z" style="fill: #dfc27d;"></path><path d="M197.32142857142858,114.54545454545455h16.071428571428573v32.727272727272734h-16.071428571428573Z" style="fill: #80cdc1;"></path><path d="M197.32142857142858,176.36363636363637h16.071428571428573v21.818181818181813h-16.071428571428573Z" style="fill: #8c510a;"></path><path d="M197.32142857142858,198.1818181818182h16.071428571428573v1.818181818181813h-16.071428571428573Z" style="fill: #543005;"></path><path d="M215.17857142857142,178.1818181818182h16.071428571428573v21.818181818181813h-16.071428571428573Z" style="fill: #8c510a;"></path><path d="M215.17857142857142,14.545454545454561h16.071428571428573v72.72727272727272h-16.071428571428573Z" style="fill: #35978f;"></path><path d="M215.17857142857142,87.27272727272728h16.071428571428573v61.81818181818181h-16.071428571428573Z" style="fill: #80cdc1;"></path><path d="M215.17857142857142,149.0909090909091h16.071428571428573v29.090909090909093h-16.071428571428573Z" style="fill: #dfc27d;"></path><path d="M233.03571428571428,196.36363636363637h16.071428571428573v1.818181818181813h-16.071428571428573Z" style="fill: #8c510a;"></path><path d="M233.03571428571428,156.36363636363637h16.071428571428573v36.363636363636346h-16.071428571428573Z" style="fill: #80cdc1;"></path><path d="M233.03571428571428,145.45454545454547h16.071428571428573v10.909090909090907h-16.071428571428573Z" style="fill: #35978f;"></path><path d="M233.03571428571428,192.72727272727272h16.071428571428573v3.6363636363636545h-16.071428571428573Z" style="fill: #dfc27d;"></path><path d="M233.03571428571428,198.1818181818182h16.071428571428573v1.818181818181813h-16.071428571428573Z" style="fill: #543005;"></path></g><g class="mark-group role-axis"><g transform="translate(0.5,200.5)"><path class="background" d="M0,0h0v0h0Z" style="pointer-events: none; fill: none;"></path><g><g class="mark-rule role-axis-tick" style="pointer-events: none;"><line transform="translate(8,0)" x2="0" y2="5" style="fill: none; stroke: #888; stroke-width: 1; opacity: 1;"></line><line transform="translate(26,0)" x2="0" y2="5" style="fill: none; stroke: #888; stroke-width: 1; opacity: 1;"></line><line transform="translate(44,0)" x2="0" y2="5" style="fill: none; stroke: #888; stroke-width: 1; opacity: 1;"></line><line transform="translate(61,0)" x2="0" y2="5" style="fill: none; stroke: #888; stroke-width: 1; opacity: 1;"></line><line transform="translate(79,0)" x2="0" y2="5" style="fill: none; stroke: #888; stroke-width: 1; opacity: 1;"></line><line transform="translate(97,0)" x2="0" y2="5" style="fill: none; stroke: #888; stroke-width: 1; opacity: 1;"></line><line transform="translate(115,0)" x2="0" y2="5" style="fill: none; stroke: #888; stroke-width: 1; opacity: 1;"></line><line transform="translate(133,0)" x2="0" y2="5" style="fill: none; stroke: #888; stroke-width: 1; opacity: 1;"></line><line transform="translate(151,0)" x2="0" y2="5" style="fill: none; stroke: #888; stroke-width: 1; opacity: 1;"></line><line transform="translate(169,0)" x2="0" y2="5" style="fill: none; stroke: #888; stroke-width: 1; opacity: 1;"></line><line transform="translate(187,0)" x2="0" y2="5" style="fill: none; stroke: #888; stroke-width: 1; opacity: 1;"></line><line transform="translate(204,0)" x2="0" y2="5" style="fill: none; stroke: #888; stroke-width: 1; opacity: 1;"></line><line transform="translate(222,0)" x2="0" y2="5" style="fill: none; stroke: #888; stroke-width: 1; opacity: 1;"></line><line transform="translate(240,0)" x2="0" y2="5" style="fill: none; stroke: #888; stroke-width: 1; opacity: 1;"></line></g><g class="mark-text role-axis-label" style="pointer-events: none;"><text text-anchor="end" transform="translate(7.928571428571425,7) rotate(270) translate(0,3)" style="font-family: sans-serif; font-size: 10px; fill: #000; opacity: 1;">2006</text><text text-anchor="end" transform="translate(25.785714285714285,7) rotate(270) translate(0,3)" style="font-family: sans-serif; font-size: 10px; fill: #000; opacity: 1;">2007</text><text text-anchor="end" transform="translate(43.64285714285714,7) rotate(270) translate(0,3)" style="font-family: sans-serif; font-size: 10px; fill: #000; opacity: 1;">2008</text><text text-anchor="end" transform="translate(61.49999999999999,7) rotate(270) translate(0,3)" style="font-family: sans-serif; font-size: 10px; fill: #000; opacity: 1;">2009</text><text text-anchor="end" transform="translate(79.35714285714286,7) rotate(270) translate(0,3)" style="font-family: sans-serif; font-size: 10px; fill: #000; opacity: 1;">2010</text><text text-anchor="end" transform="translate(97.21428571428572,7) rotate(270) translate(0,3)" style="font-family: sans-serif; font-size: 10px; fill: #000; opacity: 1;">2011</text><text text-anchor="end" transform="translate(115.07142857142857,7) rotate(270) translate(0,3)" style="font-family: sans-serif; font-size: 10px; fill: #000; opacity: 1;">2012</text><text text-anchor="end" transform="translate(132.92857142857142,7) rotate(270) translate(0,3)" style="font-family: sans-serif; font-size: 10px; fill: #000; opacity: 1;">2013</text><text text-anchor="end" transform="translate(150.78571428571428,7) rotate(270) translate(0,3)" style="font-family: sans-serif; font-size: 10px; fill: #000; opacity: 1;">2014</text><text text-anchor="end" transform="translate(168.64285714285714,7) rotate(270) translate(0,3)" style="font-family: sans-serif; font-size: 10px; fill: #000; opacity: 1;">2015</text><text text-anchor="end" transform="translate(186.5,7) rotate(270) translate(0,3)" style="font-family: sans-serif; font-size: 10px; fill: #000; opacity: 1;">2016</text><text text-anchor="end" transform="translate(204.35714285714286,7) rotate(270) translate(0,3)" style="font-family: sans-serif; font-size: 10px; fill: #000; opacity: 1;">2017</text><text text-anchor="end" transform="translate(222.2142857142857,7) rotate(270) translate(0,3)" style="font-family: sans-serif; font-size: 10px; fill: #000; opacity: 1;">2018</text><text text-anchor="end" transform="translate(240.07142857142856,7) rotate(270) translate(0,3)" style="font-family: sans-serif; font-size: 10px; fill: #000; opacity: 1;">2019</text></g><g class="mark-rule role-axis-domain" style="pointer-events: none;"><line transform="translate(0,0)" x2="250" y2="0" style="fill: none; stroke: #888; stroke-width: 1; opacity: 1;"></line></g><g class="mark-text role-axis-title" style="pointer-events: none;"><text text-anchor="middle" transform="translate(125,42.24609375000001)" style="font-family: sans-serif; font-size: 11px; font-weight: bold; fill: #000; opacity: 1;">Év</text></g></g></g></g><g class="mark-group role-axis"><g transform="translate(0.5,0.5)"><path class="background" d="M0,0h0v0h0Z" style="pointer-events: none; fill: none;"></path><g><g class="mark-rule role-axis-tick" style="pointer-events: none;"><line transform="translate(0,200)" x2="-5" y2="0" style="fill: none; stroke: #888; stroke-width: 1; opacity: 1;"></line><line transform="translate(0,164)" x2="-5" y2="0" style="fill: none; stroke: #888; stroke-width: 1; opacity: 1;"></line><line transform="translate(0,127)" x2="-5" y2="0" style="fill: none; stroke: #888; stroke-width: 1; opacity: 1;"></line><line transform="translate(0,91)" x2="-5" y2="0" style="fill: none; stroke: #888; stroke-width: 1; opacity: 1;"></line><line transform="translate(0,55)" x2="-5" y2="0" style="fill: none; stroke: #888; stroke-width: 1; opacity: 1;"></line><line transform="translate(0,18)" x2="-5" y2="0" style="fill: none; stroke: #888; stroke-width: 1; opacity: 1;"></line></g><g class="mark-text role-axis-label" style="pointer-events: none;"><text text-anchor="end" transform="translate(-7,203)" style="font-family: sans-serif; font-size: 10px; fill: #000; opacity: 1;">0</text><text text-anchor="end" transform="translate(-7,166.63636363636363)" style="font-family: sans-serif; font-size: 10px; fill: #000; opacity: 1;">20</text><text text-anchor="end" transform="translate(-7,130.27272727272725)" style="font-family: sans-serif; font-size: 10px; fill: #000; opacity: 1;">40</text><text text-anchor="end" transform="translate(-7,93.90909090909092)" style="font-family: sans-serif; font-size: 10px; fill: #000; opacity: 1;">60</text><text text-anchor="end" transform="translate(-7,57.54545454545453)" style="font-family: sans-serif; font-size: 10px; fill: #000; opacity: 1;">80</text><text text-anchor="end" transform="translate(-7,21.181818181818187)" style="font-family: sans-serif; font-size: 10px; fill: #000; opacity: 1;">100</text></g><g class="mark-rule role-axis-domain" style="pointer-events: none;"><line transform="translate(0,200)" x2="0" y2="-200" style="fill: none; stroke: #888; stroke-width: 1; opacity: 1;"></line></g><g class="mark-text role-axis-title" style="pointer-events: none;"><text text-anchor="middle" transform="translate(-27.6845703125,100) rotate(-90) translate(0,-2)" style="font-family: sans-serif; font-size: 11px; font-weight: bold; fill: #000; opacity: 1;">Események száma</text></g></g></g></g></g></g></g><g class="mark-group role-legend"><g transform="translate(580,0)"><path class="background" d="M0,0h89v79h-89Z" style="pointer-events: none; fill: none;"></path><g><g class="mark-group role-legend-entry"><g transform="translate(0,16)"><path class="background" d="M0,0h0v0h0Z" style="pointer-events: none; fill: none;"></path><g><g class="mark-group role-scope"><g transform="translate(0,0)"><path class="background" d="M0,0h88.255859375v11h-88.255859375Z" style="pointer-events: none; fill: none; opacity: 1;"></path><g><g class="mark-symbol role-legend-symbol" style="pointer-events: none;"><path transform="translate(6,6)" d="M-5,-5h10v10h-10Z" style="fill: #35978f; stroke-width: 1.5; opacity: 1;"></path></g><g class="mark-text role-legend-label" style="pointer-events: none;"><text text-anchor="start" transform="translate(16,9)" style="font-family: sans-serif; font-size: 10px; fill: #000; opacity: 1;">Más esemény</text></g></g></g><g transform="translate(0,13)"><path class="background" d="M0,0h88.255859375v11h-88.255859375Z" style="pointer-events: none; fill: none; opacity: 1;"></path><g><g class="mark-symbol role-legend-symbol" style="pointer-events: none;"><path transform="translate(6,6)" d="M-5,-5h10v10h-10Z" style="fill: #80cdc1; stroke-width: 1.5; opacity: 1;"></path></g><g class="mark-text role-legend-label" style="pointer-events: none;"><text text-anchor="start" transform="translate(16,9)" style="font-family: sans-serif; font-size: 10px; fill: #000; opacity: 1;">Medvét láttak</text></g></g></g><g transform="translate(0,26)"><path class="background" d="M0,0h88.255859375v11h-88.255859375Z" style="pointer-events: none; fill: none; opacity: 1;"></path><g><g class="mark-symbol role-legend-symbol" style="pointer-events: none;"><path transform="translate(6,6)" d="M-5,-5h10v10h-10Z" style="fill: #dfc27d; stroke-width: 1.5; opacity: 1;"></path></g><g class="mark-text role-legend-label" style="pointer-events: none;"><text text-anchor="start" transform="translate(16,9)" style="font-family: sans-serif; font-size: 10px; fill: #000; opacity: 1;">Állatokra támadt</text></g></g></g><g transform="translate(0,39)"><path class="background" d="M0,0h88.255859375v11h-88.255859375Z" style="pointer-events: none; fill: none; opacity: 1;"></path><g><g class="mark-symbol role-legend-symbol" style="pointer-events: none;"><path transform="translate(6,6)" d="M-5,-5h10v10h-10Z" style="fill: #8c510a; stroke-width: 1.5; opacity: 1;"></path></g><g class="mark-text role-legend-label" style="pointer-events: none;"><text text-anchor="start" transform="translate(16,9)" style="font-family: sans-serif; font-size: 10px; fill: #000; opacity: 1;">Emberre támadt</text></g></g></g><g transform="translate(0,52)"><path class="background" d="M0,0h88.255859375v11h-88.255859375Z" style="pointer-events: none; fill: none; opacity: 1;"></path><g><g class="mark-symbol role-legend-symbol" style="pointer-events: none;"><path transform="translate(6,6)" d="M-5,-5h10v10h-10Z" style="fill: #543005; stroke-width: 1.5; opacity: 1;"></path></g><g class="mark-text role-legend-label" style="pointer-events: none;"><text text-anchor="start" transform="translate(16,9)" style="font-family: sans-serif; font-size: 10px; fill: #000; opacity: 1;">Emberáldozat</text></g></g></g></g></g></g></g><g class="mark-text role-legend-title" style="pointer-events: none;"><text text-anchor="start" transform="translate(0,9)" style="font-family: sans-serif; font-size: 11px; font-weight: bold; fill: #000; opacity: 1;">Esemény típusa</text></g></g></g></g></g></g></g></g></svg>