<svg class="marks" width="407" height="255" viewBox="0 0 407 255" version="1.1" xmlns="http://www.w3.org/2000/svg" xmlns:xlink="http://www.w3.org/1999/xlink"><g transform="translate(39,5)"><g class="mark-group role-frame root"><g transform="translate(0,0)"><path class="background" d="M0.5,0.5h250v200h-250Z" style="fill: none; stroke: #ddd;"></path><g><g class="mark-group role-axis"><g transform="translate(0.5,0.5)"><path class="background" d="M0,0h0v0h0Z" style="pointer-events: none; fill: none;"></path><g><g class="mark-rule role-axis-grid" style="pointer-events: none;"><line transform="translate(0,200)" x2="250" y2="0" style="fill: none; stroke: #ddd; stroke-width: 1; opacity: 1;"></line><line transform="translate(0,162)" x2="250" y2="0" style="fill: none; stroke: #ddd; stroke-width: 1; opacity: 1;"></line><line transform="translate(0,123)" x2="250" y2="0" style="fill: none; stroke: #ddd; stroke-width: 1; opacity: 1;"></line><line transform="translate(0,85)" x2="250" y2="0" style="fill: none; stroke: #ddd; stroke-width: 1; opacity: 1;"></line><line transform="translate(0,46)" x2="250" y2="0" style="fill: none; stroke: #ddd; stroke-width: 1; opacity: 1;"></line><line transform="translate(0,8)" x2="250" y2="0" style="fill: none; stroke: #ddd; stroke-width: 1; opacity: 1;"></line></g></g></g></g><g class="mark-rect role-mark marks"><path d="M0.8928571428571388,192.30769230769232h16.071428571428573v7.692307692307679h-16.071428571428573Z" style="fill: #e41a1c;"></path><path d="M18.749999999999996,192.30769230769232h16.071428571428573v7.692307692307679h-16.071428571428573Z" style="fill: #e41a1c;"></path><path d="M36.607142857142854,184.6153846153846h16.071428571428573v7.692307692307708h-16.071428571428573Z" style="fill: #377eb8;"></path><path d="M54.46428571428571,184.6153846153846h16.071428571428573v15.384615384615387h-16.071428571428573Z" style="fill: #984ea3;"></path><path d="M54.46428571428571,176.92307692307693h16.071428571428573v7.692307692307679h-16.071428571428573Z" style="fill: #e41a1c;"></path><path d="M72.32142857142857,176.92307692307693h16.071428571428573v15.384615384615387h-16.071428571428573Z" style="fill: #377eb8;"></path><path d="M72.32142857142857,192.30769230769232h16.071428571428573v7.692307692307679h-16.071428571428573Z" style="fill: #984ea3;"></path><path d="M72.32142857142857,169.23076923076923h16.071428571428573v7.692307692307708h-16.071428571428573Z" style="fill: #e41a1c;"></path><path d="M90.17857142857143,161.53846153846155h16.071428571428573v7.692307692307679h-16.071428571428573Z" style="fill: #e41a1c;"></path><path d="M90.17857142857143,169.23076923076923h16.071428571428573v23.076923076923094h-16.071428571428573Z" style="fill: #377eb8;"></path><path d="M90.17857142857143,192.30769230769232h16.071428571428573v7.692307692307679h-16.071428571428573Z" style="fill: #ff7f00;"></path><path d="M108.03571428571428,161.53846153846155h16.071428571428573v30.769230769230774h-16.071428571428573Z" style="fill: #377eb8;"></path><path d="M108.03571428571428,192.30769230769232h16.071428571428573v7.692307692307679h-16.071428571428573Z" style="fill: #984ea3;"></path><path d="M108.03571428571428,146.15384615384616h16.071428571428573v15.384615384615387h-16.071428571428573Z" style="fill: #e41a1c;"></path><path d="M125.89285714285714,192.30769230769232h16.071428571428573v7.692307692307679h-16.071428571428573Z" style="fill: #ff7f00;"></path><path d="M125.89285714285714,184.6153846153846h16.071428571428573v7.692307692307708h-16.071428571428573Z" style="fill: #984ea3;"></path><path d="M125.89285714285714,176.92307692307693h16.071428571428573v7.692307692307679h-16.071428571428573Z" style="fill: #377eb8;"></path><path d="M143.75,169.23076923076923h16.071428571428573v30.769230769230774h-16.071428571428573Z" style="fill: #4daf4a;"></path><path d="M143.75,76.92307692307692h16.071428571428573v61.53846153846153h-16.071428571428573Z" style="fill: #e41a1c;"></path><path d="M143.75,138.46153846153845h16.071428571428573v30.769230769230774h-16.071428571428573Z" style="fill: #377eb8;"></path><path d="M161.60714285714286,161.53846153846155h16.071428571428573v38.46153846153845h-16.071428571428573Z" style="fill: #377eb8;"></path><path d="M161.60714285714286,123.07692307692307h16.071428571428573v38.46153846153848h-16.071428571428573Z" style="fill: #e41a1c;"></path><path d="M179.46428571428572,184.6153846153846h16.071428571428573v15.384615384615387h-16.071428571428573Z" style="fill: #377eb8;"></path><path d="M179.46428571428572,161.53846153846155h16.071428571428573v23.076923076923066h-16.071428571428573Z" style="fill: #e41a1c;"></path><path d="M197.32142857142858,161.53846153846155h16.071428571428573v15.384615384615387h-16.071428571428573Z" style="fill: #4daf4a;"></path><path d="M197.32142857142858,7.692307692307679h16.071428571428573v69.23076923076924h-16.071428571428573Z" style="fill: #e41a1c;"></path><path d="M197.32142857142858,176.92307692307693h16.071428571428573v7.692307692307679h-16.071428571428573Z" style="fill: #984ea3;"></path><path d="M197.32142857142858,76.92307692307692h16.071428571428573v84.61538461538463h-16.071428571428573Z" style="fill: #377eb8;"></path><path d="M197.32142857142858,184.6153846153846h16.071428571428573v15.384615384615387h-16.071428571428573Z" style="fill: #ff7f00;"></path><path d="M215.17857142857142,23.076923076923094h16.071428571428573v53.846153846153825h-16.071428571428573Z" style="fill: #e41a1c;"></path><path d="M215.17857142857142,146.15384615384616h16.071428571428573v23.076923076923066h-16.071428571428573Z" style="fill: #4daf4a;"></path><path d="M215.17857142857142,76.92307692307692h16.071428571428573v69.23076923076924h-16.071428571428573Z" style="fill: #377eb8;"></path><path d="M215.17857142857142,184.6153846153846h16.071428571428573v15.384615384615387h-16.071428571428573Z" style="fill: #ff7f00;"></path><path d="M215.17857142857142,169.23076923076923h16.071428571428573v15.384615384615387h-16.071428571428573Z" style="fill: #984ea3;"></path><path d="M233.03571428571428,169.23076923076923h16.071428571428573v7.692307692307708h-16.071428571428573Z" style="fill: #e41a1c;"></path><path d="M233.03571428571428,192.30769230769232h16.071428571428573v7.692307692307679h-16.071428571428573Z" style="fill: #ff7f00;"></path><path d="M233.03571428571428,176.92307692307693h16.071428571428573v15.384615384615387h-16.071428571428573Z" style="fill: #377eb8;"></path><path d="M36.607142857142854,192.30769230769232h16.071428571428573v7.692307692307679h-16.071428571428573Z" style="fill: #984ea3;"></path></g><g class="mark-group role-legend"><g transform="translate(268,0)"><path class="background" d="M0,0h95v79h-95Z" style="pointer-events: none; fill: none;"></path><g><g class="mark-group role-legend-entry"><g transform="translate(0,16)"><path class="background" d="M0,0h0v0h0Z" style="pointer-events: none; fill: none;"></path><g><g class="mark-group role-scope"><g transform="translate(0,0)"><path class="background" d="M0,0h94.9306640625v11h-94.9306640625Z" style="pointer-events: none; fill: none; opacity: 1;"></path><g><g class="mark-symbol role-legend-symbol" style="pointer-events: none;"><path transform="translate(6,6)" d="M-5,-5h10v10h-10Z" style="fill: #e41a1c; stroke-width: 1.5; opacity: 1;"></path></g><g class="mark-text role-legend-label" style="pointer-events: none;"><text text-anchor="start" transform="translate(16,9)" style="font-family: sans-serif; font-size: 10px; fill: #000; opacity: 1;">null</text></g></g></g><g transform="translate(0,13)"><path class="background" d="M0,0h94.9306640625v11h-94.9306640625Z" style="pointer-events: none; fill: none; opacity: 1;"></path><g><g class="mark-symbol role-legend-symbol" style="pointer-events: none;"><path transform="translate(6,6)" d="M-5,-5h10v10h-10Z" style="fill: #377eb8; stroke-width: 1.5; opacity: 1;"></path></g><g class="mark-text role-legend-label" style="pointer-events: none;"><text text-anchor="start" transform="translate(16,9)" style="font-family: sans-serif; font-size: 10px; fill: #000; opacity: 1;">Csíkszereda</text></g></g></g><g transform="translate(0,26)"><path class="background" d="M0,0h94.9306640625v11h-94.9306640625Z" style="pointer-events: none; fill: none; opacity: 1;"></path><g><g class="mark-symbol role-legend-symbol" style="pointer-events: none;"><path transform="translate(6,6)" d="M-5,-5h10v10h-10Z" style="fill: #4daf4a; stroke-width: 1.5; opacity: 1;"></path></g><g class="mark-text role-legend-label" style="pointer-events: none;"><text text-anchor="start" transform="translate(16,9)" style="font-family: sans-serif; font-size: 10px; fill: #000; opacity: 1;">Marosvásárhely</text></g></g></g><g transform="translate(0,39)"><path class="background" d="M0,0h94.9306640625v11h-94.9306640625Z" style="pointer-events: none; fill: none; opacity: 1;"></path><g><g class="mark-symbol role-legend-symbol" style="pointer-events: none;"><path transform="translate(6,6)" d="M-5,-5h10v10h-10Z" style="fill: #984ea3; stroke-width: 1.5; opacity: 1;"></path></g><g class="mark-text role-legend-label" style="pointer-events: none;"><text text-anchor="start" transform="translate(16,9)" style="font-family: sans-serif; font-size: 10px; fill: #000; opacity: 1;">Sepsiszentgyörgy</text></g></g></g><g transform="translate(0,52)"><path class="background" d="M0,0h94.9306640625v11h-94.9306640625Z" style="pointer-events: none; fill: none; opacity: 1;"></path><g><g class="mark-symbol role-legend-symbol" style="pointer-events: none;"><path transform="translate(6,6)" d="M-5,-5h10v10h-10Z" style="fill: #ff7f00; stroke-width: 1.5; opacity: 1;"></path></g><g class="mark-text role-legend-label" style="pointer-events: none;"><text text-anchor="start" transform="translate(16,9)" style="font-family: sans-serif; font-size: 10px; fill: #000; opacity: 1;">Székelyudvarhely</text></g></g></g></g></g></g></g><g class="mark-text role-legend-title" style="pointer-events: none;"><text text-anchor="start" transform="translate(0,9)" style="font-family: sans-serif; font-size: 11px; font-weight: bold; fill: #000; opacity: 1;">Város</text></g></g></g></g><g class="mark-group role-axis"><g transform="translate(0.5,200.5)"><path class="background" d="M0,0h0v0h0Z" style="pointer-events: none; fill: none;"></path><g><g class="mark-rule role-axis-tick" style="pointer-events: none;"><line transform="translate(8,0)" x2="0" y2="5" style="fill: none; stroke: #888; stroke-width: 1; opacity: 1;"></line><line transform="translate(26,0)" x2="0" y2="5" style="fill: none; stroke: #888; stroke-width: 1; opacity: 1;"></line><line transform="translate(44,0)" x2="0" y2="5" style="fill: none; stroke: #888; stroke-width: 1; opacity: 1;"></line><line transform="translate(61,0)" x2="0" y2="5" style="fill: none; stroke: #888; stroke-width: 1; opacity: 1;"></line><line transform="translate(79,0)" x2="0" y2="5" style="fill: none; stroke: #888; stroke-width: 1; opacity: 1;"></line><line transform="translate(97,0)" x2="0" y2="5" style="fill: none; stroke: #888; stroke-width: 1; opacity: 1;"></line><line transform="translate(115,0)" x2="0" y2="5" style="fill: none; stroke: #888; stroke-width: 1; opacity: 1;"></line><line transform="translate(133,0)" x2="0" y2="5" style="fill: none; stroke: #888; stroke-width: 1; opacity: 1;"></line><line transform="translate(151,0)" x2="0" y2="5" style="fill: none; stroke: #888; stroke-width: 1; opacity: 1;"></line><line transform="translate(169,0)" x2="0" y2="5" style="fill: none; stroke: #888; stroke-width: 1; opacity: 1;"></line><line transform="translate(187,0)" x2="0" y2="5" style="fill: none; stroke: #888; stroke-width: 1; opacity: 1;"></line><line transform="translate(204,0)" x2="0" y2="5" style="fill: none; stroke: #888; stroke-width: 1; opacity: 1;"></line><line transform="translate(222,0)" x2="0" y2="5" style="fill: none; stroke: #888; stroke-width: 1; opacity: 1;"></line><line transform="translate(240,0)" x2="0" y2="5" style="fill: none; stroke: #888; stroke-width: 1; opacity: 1;"></line></g><g class="mark-text role-axis-label" style="pointer-events: none;"><text text-anchor="end" transform="translate(7.928571428571425,7) rotate(270) translate(0,3)" style="font-family: sans-serif; font-size: 10px; fill: #000; opacity: 1;">2006</text><text text-anchor="end" transform="translate(25.785714285714285,7) rotate(270) translate(0,3)" style="font-family: sans-serif; font-size: 10px; fill: #000; opacity: 1;">2007</text><text text-anchor="end" transform="translate(43.64285714285714,7) rotate(270) translate(0,3)" style="font-family: sans-serif; font-size: 10px; fill: #000; opacity: 1;">2008</text><text text-anchor="end" transform="translate(61.49999999999999,7) rotate(270) translate(0,3)" style="font-family: sans-serif; font-size: 10px; fill: #000; opacity: 1;">2009</text><text text-anchor="end" transform="translate(79.35714285714286,7) rotate(270) translate(0,3)" style="font-family: sans-serif; font-size: 10px; fill: #000; opacity: 1;">2010</text><text text-anchor="end" transform="translate(97.21428571428572,7) rotate(270) translate(0,3)" style="font-family: sans-serif; font-size: 10px; fill: #000; opacity: 1;">2011</text><text text-anchor="end" transform="translate(115.07142857142857,7) rotate(270) translate(0,3)" style="font-family: sans-serif; font-size: 10px; fill: #000; opacity: 1;">2012</text><text text-anchor="end" transform="translate(132.92857142857142,7) rotate(270) translate(0,3)" style="font-family: sans-serif; font-size: 10px; fill: #000; opacity: 1;">2013</text><text text-anchor="end" transform="translate(150.78571428571428,7) rotate(270) translate(0,3)" style="font-family: sans-serif; font-size: 10px; fill: #000; opacity: 1;">2014</text><text text-anchor="end" transform="translate(168.64285714285714,7) rotate(270) translate(0,3)" style="font-family: sans-serif; font-size: 10px; fill: #000; opacity: 1;">2015</text><text text-anchor="end" transform="translate(186.5,7) rotate(270) translate(0,3)" style="font-family: sans-serif; font-size: 10px; fill: #000; opacity: 1;">2016</text><text text-anchor="end" transform="translate(204.35714285714286,7) rotate(270) translate(0,3)" style="font-family: sans-serif; font-size: 10px; fill: #000; opacity: 1;">2017</text><text text-anchor="end" transform="translate(222.2142857142857,7) rotate(270) translate(0,3)" style="font-family: sans-serif; font-size: 10px; fill: #000; opacity: 1;">2018</text><text text-anchor="end" transform="translate(240.07142857142856,7) rotate(270) translate(0,3)" style="font-family: sans-serif; font-size: 10px; fill: #000; opacity: 1;">2019</text></g><g class="mark-rule role-axis-domain" style="pointer-events: none;"><line transform="translate(0,0)" x2="250" y2="0" style="fill: none; stroke: #888; stroke-width: 1; opacity: 1;"></line></g><g class="mark-text role-axis-title" style="pointer-events: none;"><text text-anchor="middle" transform="translate(125,42.24609375000001)" style="font-family: sans-serif; font-size: 11px; font-weight: bold; fill: #000; opacity: 1;">Év</text></g></g></g></g><g class="mark-group role-axis"><g transform="translate(0.5,0.5)"><path class="background" d="M0,0h0v0h0Z" style="pointer-events: none; fill: none;"></path><g><g class="mark-rule role-axis-tick" style="pointer-events: none;"><line transform="translate(0,200)" x2="-5" y2="0" style="fill: none; stroke: #888; stroke-width: 1; opacity: 1;"></line><line transform="translate(0,162)" x2="-5" y2="0" style="fill: none; stroke: #888; stroke-width: 1; opacity: 1;"></line><line transform="translate(0,123)" x2="-5" y2="0" style="fill: none; stroke: #888; stroke-width: 1; opacity: 1;"></line><line transform="translate(0,85)" x2="-5" y2="0" style="fill: none; stroke: #888; stroke-width: 1; opacity: 1;"></line><line transform="translate(0,46)" x2="-5" y2="0" style="fill: none; stroke: #888; stroke-width: 1; opacity: 1;"></line><line transform="translate(0,8)" x2="-5" y2="0" style="fill: none; stroke: #888; stroke-width: 1; opacity: 1;"></line></g><g class="mark-text role-axis-label" style="pointer-events: none;"><text text-anchor="end" transform="translate(-7,203)" style="font-family: sans-serif; font-size: 10px; fill: #000; opacity: 1;">0</text><text text-anchor="end" transform="translate(-7,164.53846153846155)" style="font-family: sans-serif; font-size: 10px; fill: #000; opacity: 1;">5</text><text text-anchor="end" transform="translate(-7,126.07692307692307)" style="font-family: sans-serif; font-size: 10px; fill: #000; opacity: 1;">10</text><text text-anchor="end" transform="translate(-7,87.61538461538463)" style="font-family: sans-serif; font-size: 10px; fill: #000; opacity: 1;">15</text><text text-anchor="end" transform="translate(-7,49.15384615384613)" style="font-family: sans-serif; font-size: 10px; fill: #000; opacity: 1;">20</text><text text-anchor="end" transform="translate(-7,10.69230769230768)" style="font-family: sans-serif; font-size: 10px; fill: #000; opacity: 1;">25</text></g><g class="mark-rule role-axis-domain" style="pointer-events: none;"><line transform="translate(0,200)" x2="0" y2="-200" style="fill: none; stroke: #888; stroke-width: 1; opacity: 1;"></line></g><g class="mark-text role-axis-title" style="pointer-events: none;"><text text-anchor="middle" transform="translate(-22.123046875,100) rotate(-90) translate(0,-2)" style="font-family: sans-serif; font-size: 11px; font-weight: bold; fill: #000; opacity: 1;">Medvepolitikai események</text></g></g></g></g></g></g></g></g></svg>